<svg width="22" height="18" viewBox="0 0 22 18" fill="none" xmlns="http://www.w3.org/2000/svg">
<path d="M8.89598 15.8121C8.89598 15.978 8.89598 16.1357 8.89598 16.291C9.06187 16.291 9.21953 16.291 9.37587 16.291C9.37587 16.1271 9.37587 15.9724 9.37587 15.8121C9.21525 15.8121 9.06088 15.8121 8.89598 15.8121ZM12.349 14.3224C12.349 14.4818 12.349 14.6411 12.349 14.8129C12.1838 14.8129 12.0261 14.8129 11.8563 14.8129C11.8563 14.9824 11.8563 15.1397 11.8563 15.3141C11.6815 15.3141 11.5192 15.3141 11.357 15.3141C11.357 15.1515 11.357 14.9893 11.357 14.826C11.1861 14.826 11.0288 14.826 10.8731 14.826C10.8731 14.9916 10.8731 15.1489 10.8731 15.3105C11.0416 15.3105 11.2009 15.3105 11.3606 15.3105C11.3606 15.4701 11.3606 15.6301 11.3606 15.8033C11.193 15.8033 11.0354 15.8033 10.8685 15.8033C10.8685 15.9711 10.8685 16.1261 10.8685 16.2904C10.7023 16.2904 10.5446 16.2904 10.3732 16.2904C10.3732 16.135 10.3732 15.977 10.3732 15.8128C10.2053 15.8128 10.0503 15.8128 9.88242 15.8128C9.88242 16.1324 9.88242 16.4546 9.88242 16.79C9.54702 16.79 9.22479 16.79 8.88907 16.79C8.88907 16.9605 8.88907 17.1185 8.88907 17.2821C8.72088 17.2821 8.56617 17.2821 8.40259 17.2821C8.40259 16.4661 8.40259 15.6505 8.40259 14.8158C8.56354 14.8158 8.72615 14.8158 8.88907 14.8158C8.88907 14.9784 8.88907 15.1407 8.88907 15.3039C9.05989 15.3039 9.21721 15.3039 9.3729 15.3039C9.3729 15.1384 9.3729 14.9811 9.3729 14.8195C9.20438 14.8195 9.04509 14.8195 8.88545 14.8195C8.88545 14.6539 8.88545 14.4883 8.88545 14.3224C9.04805 14.3224 9.21031 14.3224 9.37356 14.3224C9.37356 14.1516 9.37356 13.9943 9.37356 13.8386C9.208 13.8386 9.05068 13.8386 8.88907 13.8386C8.88907 14.0071 8.88907 14.1664 8.88907 14.3261C8.72944 14.3261 8.56979 14.3261 8.40193 14.3261C8.40193 13.8304 8.40193 13.3439 8.40193 12.8436C8.56387 12.8436 8.7268 12.8436 8.88939 12.8436L8.8861 12.84C8.8861 13.0026 8.8861 13.1652 8.8861 13.3271C9.06087 13.3271 9.21821 13.3271 9.38377 13.3271C9.38377 13.1589 9.38377 12.9993 9.38377 12.84L9.38015 12.8433C9.54472 12.8436 9.70895 12.8443 9.87352 12.8446C9.87352 13.0065 9.87352 13.1685 9.87352 13.3343C10.0536 13.3343 10.2129 13.3343 10.3722 13.3343C10.3722 13.4999 10.3722 13.6658 10.3722 13.8313C10.2096 13.8313 10.0473 13.8313 9.88407 13.8313C9.88407 14.0022 9.88407 14.1595 9.88407 14.3152C10.0496 14.3152 10.2069 14.3152 10.3686 14.3152C10.3686 14.1467 10.3686 13.9874 10.3686 13.8277C10.5328 13.8294 10.6974 13.831 10.8616 13.833C10.8616 13.9949 10.8616 14.1569 10.8616 14.3142C11.0397 14.3142 11.197 14.3142 11.352 14.3142C11.352 14.15 11.352 13.9956 11.352 13.8366C11.1832 13.8366 11.0209 13.8366 10.8583 13.8366C10.8613 13.6704 10.8642 13.5045 10.8669 13.3383C11.0288 13.3383 11.1908 13.3383 11.3481 13.3383C11.3481 13.1603 11.3481 13.0029 11.3481 12.8479C11.1838 12.8479 11.0295 12.8479 10.8705 12.8479C10.8705 13.0164 10.8705 13.179 10.8705 13.3416C10.7029 13.3403 10.5357 13.3393 10.3682 13.338C10.3682 13.176 10.3682 13.0141 10.3682 12.8485C10.1941 12.8485 10.0318 12.8485 9.8699 12.8485C9.87254 12.681 9.87485 12.5135 9.87715 12.346L9.87386 12.3496C10.0368 12.3496 10.1997 12.3496 10.3715 12.3496C10.3715 12.1718 10.3715 12.0119 10.3715 11.8519L10.3682 11.8552C10.5341 11.8542 10.7 11.8529 10.8659 11.8519C10.8659 12.0145 10.8659 12.1771 10.8659 12.339C11.037 12.339 11.1944 12.339 11.3566 12.339C11.3566 12.1709 11.3566 12.0112 11.3566 11.8516C11.5225 11.8516 11.6884 11.8516 11.8543 11.8519C11.8543 12.0148 11.8543 12.1778 11.8543 12.346C12.0287 12.346 12.1887 12.346 12.3483 12.346C12.3483 12.5118 12.3483 12.6774 12.3483 12.843C12.1857 12.843 12.0235 12.843 11.8602 12.843C11.8602 13.0138 11.8602 13.1711 11.8602 13.3268C12.0258 13.3268 12.1831 13.3268 12.3447 13.3268C12.3447 13.1583 12.3447 12.999 12.3447 12.8393C12.5106 12.8393 12.6765 12.8397 12.842 12.8397C12.842 13.0023 12.842 13.1649 12.842 13.3268C13.0132 13.3268 13.1705 13.3268 13.3328 13.3268C13.3328 13.1586 13.3328 12.999 13.3328 12.8393C13.4987 12.8407 13.6646 12.8416 13.8305 12.843L13.8272 12.8397C13.8272 13.0026 13.8272 13.1655 13.8272 13.3373C14.0049 13.3373 14.1649 13.3373 14.3248 13.3373L14.3212 13.334C14.3212 13.4937 14.3212 13.6536 14.3212 13.8268C14.1579 13.8268 14 13.8268 13.8334 13.8268C13.8334 13.9946 13.8334 14.1496 13.8334 14.3139C13.6669 14.3139 13.5092 14.3139 13.3381 14.3139C13.3381 14.1585 13.3381 14.0005 13.3381 13.8363C13.1702 13.8363 13.0152 13.8363 12.847 13.8363C12.847 13.9913 12.847 14.1493 12.847 14.3257C12.6712 14.3257 12.5083 14.3257 12.3454 14.3257C12.3454 14.1631 12.3454 14.0009 12.3454 13.8376C12.1745 13.8376 12.0172 13.8376 11.8615 13.8376C11.8615 14.0032 11.8615 14.1605 11.8615 14.3221C12.0297 14.3225 12.1893 14.3224 12.349 14.3224ZM9.88505 14.8231C9.88505 14.9922 9.88505 15.1496 9.88505 15.3066C10.049 15.3066 10.2036 15.3066 10.3629 15.3066C10.3629 15.143 10.3629 14.9857 10.3629 14.8231C10.2017 14.8231 10.047 14.8231 9.88505 14.8231Z" fill="white"/>
<path d="M8.89071 12.3454C8.73108 12.3454 8.57178 12.3454 8.39931 12.3454C8.39931 12.1835 8.39931 12.0258 8.39931 11.8513C8.22421 11.8513 8.06161 11.8513 7.89901 11.8513L7.90231 11.855C7.90132 11.6891 7.9 11.5232 7.89901 11.3573C8.06194 11.3573 8.22487 11.3573 8.39306 11.3573C8.39306 11.1829 8.39306 11.0232 8.39306 10.8633C8.55895 10.8633 8.72482 10.8633 8.89071 10.8636C8.89071 11.0262 8.89071 11.1888 8.89071 11.3507C9.06186 11.3507 9.2192 11.3507 9.38147 11.3507C9.38147 11.1825 9.38147 11.0229 9.38147 10.8633C9.54736 10.8633 9.71323 10.8633 9.87912 10.8636C9.87912 11.0265 9.87912 11.1894 9.87912 11.3576C10.0536 11.3576 10.2135 11.3576 10.3732 11.3576C10.3719 11.5235 10.3708 11.6894 10.3695 11.855L10.3728 11.8517C10.2099 11.8517 10.047 11.8517 9.87518 11.8517C9.87518 12.0294 9.87518 12.1894 9.87518 12.3494L9.87847 12.3457C9.71259 12.3457 9.54669 12.3457 9.38081 12.3457L9.38442 12.3494C9.38442 12.1868 9.38442 12.0242 9.38442 11.8622C9.20965 11.8622 9.05233 11.8622 8.88677 11.8622C8.88677 12.0304 8.88677 12.1901 8.88677 12.3494L8.89071 12.3454Z" fill="white"/>
<path d="M6.41934 11.8517C6.2597 11.8517 6.09975 11.8517 5.92695 11.8517C5.92695 12.0182 5.92695 12.1759 5.92695 12.3404C5.75909 12.3404 5.6044 12.3404 5.43654 12.3404C5.43654 12.1867 5.43654 12.0288 5.43654 11.8622C5.26571 11.8622 5.10837 11.8622 4.93722 11.8622C4.93722 12.0196 4.93722 12.1775 4.93722 12.3411C4.76936 12.3411 4.61467 12.3411 4.4468 12.3411C4.4468 12.1848 4.4468 12.0271 4.4468 11.8513C4.27104 11.8513 4.10844 11.8513 3.94552 11.8513L3.94881 11.855C3.94783 11.6891 3.94651 11.5232 3.94552 11.3573C4.10844 11.3573 4.27138 11.3573 4.43957 11.3573C4.43957 11.1829 4.43957 11.0232 4.43957 10.8633C4.60546 10.8633 4.77133 10.8633 4.93722 10.8636C4.93722 11.0262 4.93722 11.1888 4.93722 11.3507C5.10837 11.3507 5.26571 11.3507 5.42798 11.3507C5.42798 11.1825 5.42798 11.0229 5.42798 10.8633C5.59386 10.8633 5.75974 10.8633 5.92563 10.8636C5.92563 11.0265 5.92563 11.1894 5.92563 11.3576C6.10007 11.3576 6.26004 11.3576 6.41968 11.3576C6.41836 11.5235 6.41738 11.6894 6.41606 11.855L6.41934 11.8517Z" fill="white"/>
<path d="M2.46631 11.8517C2.30668 11.8517 2.14671 11.8517 1.97358 11.8517C1.97358 12.0182 1.97358 12.1762 1.97358 12.3408C1.80572 12.3408 1.65102 12.3408 1.48282 12.3408C1.48282 12.1864 1.48282 12.0288 1.48282 11.8622C1.312 11.8622 1.15434 11.8622 0.983188 11.8622C0.983188 12.0202 0.983188 12.1782 0.983188 12.3414C0.815326 12.3414 0.660641 12.3414 0.49245 12.3414C0.49245 12.1844 0.49245 12.0265 0.49245 11.8556C0.321626 11.8556 0.163957 11.8556 4.52562e-05 11.8556C4.52635e-05 11.6878 4.52703e-05 11.5331 4.52776e-05 11.3649C0.156058 11.3649 0.314045 11.3649 0.489477 11.3649C0.489477 11.1891 0.489477 11.0262 0.489477 10.8636L0.485861 10.8669C0.651748 10.8659 0.817642 10.8646 0.983529 10.8636C0.983529 11.0262 0.983529 11.1888 0.983529 11.3507C1.15468 11.3507 1.312 11.3507 1.47427 11.3507C1.47427 11.1825 1.47427 11.0229 1.47427 10.8633C1.64015 10.8633 1.80605 10.8633 1.97193 10.8636C1.97193 11.0265 1.97193 11.1894 1.97193 11.3576C2.14638 11.3576 2.30633 11.3576 2.46597 11.3576C2.46465 11.5235 2.46367 11.6894 2.46235 11.855L2.46631 11.8517Z" fill="white"/>
<path d="M15.8036 11.8519C15.8036 12.1758 15.8036 12.4997 15.8036 12.8361C15.4784 12.8361 15.1565 12.8361 14.8218 12.8361C14.8218 13.0056 14.8218 13.1632 14.8218 13.3343C14.6464 13.3343 14.4838 13.3343 14.3212 13.3343L14.3248 13.3376C14.3248 13.1747 14.3248 13.0118 14.3248 12.84C14.1471 12.84 13.9871 12.84 13.8271 12.84L13.8304 12.8433C13.8291 12.6774 13.8281 12.5115 13.8268 12.346C13.9897 12.346 14.1527 12.346 14.3212 12.346C14.3212 12.1715 14.3212 12.0115 14.3212 11.8516C14.4871 11.8516 14.653 11.8516 14.8188 11.8519C14.8188 12.0145 14.8188 12.1771 14.8188 12.339C14.99 12.339 15.1473 12.339 15.3096 12.339C15.3096 12.1709 15.3096 12.0112 15.3096 11.8516C15.4755 11.8529 15.6414 11.8539 15.8073 11.8552L15.8036 11.8519Z" fill="white"/>
<path d="M17.2872 11.3576C17.2872 11.5173 17.2872 11.6769 17.2872 11.8497C17.1246 11.8497 16.9666 11.8497 16.7961 11.8497C16.7961 12.0202 16.7961 12.1782 16.7961 12.3414C16.6282 12.3414 16.4739 12.3414 16.306 12.3414C16.306 12.1844 16.306 12.0264 16.306 11.8517C16.1303 11.8517 15.9677 11.8517 15.8051 11.8517L15.8087 11.855C15.8074 11.6891 15.8064 11.5232 15.8051 11.3576C15.968 11.3576 16.1309 11.3576 16.2994 11.3576C16.2994 11.1832 16.2994 11.0232 16.2994 10.8633C16.4653 10.8633 16.6312 10.8633 16.7971 10.8636C16.7971 11.0265 16.7971 11.1894 16.7971 11.3609C16.9712 11.3609 17.1312 11.3609 17.2911 11.3609L17.2872 11.3576Z" fill="white"/>
<path d="M19.7569 9.87598C19.7569 10.0353 19.7569 10.1949 19.7569 10.3631C19.595 10.3631 19.4376 10.3631 19.2668 10.3631C19.2668 10.2012 19.2668 10.0386 19.2668 9.87598L19.2632 9.87927C19.4291 9.87927 19.595 9.87927 19.7609 9.87927L19.7569 9.87598Z" fill="white"/>
<path d="M18.7734 6.9129C18.7734 6.7536 18.7734 6.59397 18.7734 6.42578C18.9353 6.42578 19.0926 6.42578 19.2635 6.42578C19.2635 6.58772 19.2635 6.75031 19.2635 6.9129L19.2671 6.90961C19.1012 6.90961 18.9353 6.90961 18.7694 6.90961L18.7734 6.9129Z" fill="white"/>
<path d="M19.2671 9.87525C19.1012 9.87525 18.9353 9.87522 18.7694 9.87489L18.7727 9.87855C18.7717 9.71266 18.7704 9.54675 18.7694 9.38086C18.9353 9.38086 19.1012 9.38085 19.2671 9.38118C19.2658 9.54707 19.2648 9.71299 19.2635 9.87855L19.2671 9.87525Z" fill="white"/>
<path d="M18.2794 7.40846C18.2794 7.24883 18.2794 7.08887 18.2794 6.91443C18.4479 6.91443 18.6105 6.91443 18.7734 6.91443L18.7698 6.91113C18.7698 7.07406 18.7698 7.23665 18.7698 7.40517C18.5954 7.40517 18.4354 7.40517 18.2758 7.40517L18.2794 7.40846Z" fill="white"/>
<path d="M18.7698 9.87402C18.7698 10.034 18.7698 10.1937 18.7698 10.3681C18.6013 10.3681 18.4384 10.3681 18.2758 10.3681L18.2791 10.3717C18.2781 10.2058 18.2768 10.0399 18.2758 9.87402C18.4417 9.87534 18.6076 9.87636 18.7734 9.87768L18.7698 9.87402Z" fill="white"/>
<path d="M17.7807 7.40795C17.9466 7.40795 18.1124 7.40759 18.2783 7.40759L18.2747 7.4043C18.276 7.57018 18.277 7.73611 18.2783 7.90166C18.1124 7.90166 17.9466 7.90166 17.7807 7.90199C17.7817 7.7361 17.783 7.57018 17.7839 7.4043L17.7807 7.40795Z" fill="white"/>
<path d="M18.2747 10.3691C18.2747 10.5291 18.2747 10.6887 18.2747 10.8632C18.1062 10.8632 17.9433 10.8632 17.7807 10.8632L17.7839 10.8668C17.783 10.7009 17.7817 10.535 17.7807 10.3691C17.9466 10.3705 18.1124 10.3714 18.2783 10.3728L18.2747 10.3691Z" fill="white"/>
<path d="M17.2868 5.92549C17.4461 5.92549 17.6055 5.92549 17.7733 5.92549C17.7733 6.08677 17.7733 6.24376 17.7733 6.40932C17.6176 6.40932 17.4603 6.40932 17.2905 6.40932C17.2905 6.24639 17.2905 6.08414 17.2905 5.92188L17.2868 5.92549Z" fill="white"/>
<path d="M17.2911 7.40802C17.2911 7.24872 17.2911 7.08909 17.2911 6.9209C17.453 6.9209 17.6103 6.9209 17.7815 6.9209C17.7815 7.08317 17.7815 7.24579 17.7815 7.40838L17.7848 7.40473C17.6189 7.40473 17.453 7.40473 17.2871 7.40473L17.2911 7.40802Z" fill="white"/>
<path d="M17.7815 10.8633C17.7815 11.0232 17.7815 11.1829 17.7815 11.3576C17.613 11.3576 17.4501 11.3576 17.2871 11.3576L17.2908 11.3609C17.2894 11.195 17.2885 11.0292 17.2871 10.8636C17.453 10.8646 17.6189 10.8659 17.7848 10.8669L17.7815 10.8633Z" fill="white"/>
<path d="M17.2911 5.92274C17.1253 5.92241 16.9594 5.92206 16.7931 5.92206L16.7968 5.92572C16.7968 5.76016 16.7968 5.5946 16.7968 5.42871L16.7931 5.43233C16.9528 5.43233 17.1128 5.43233 17.2872 5.43233C17.2872 5.60085 17.2872 5.76344 17.2872 5.92636L17.2911 5.92274Z" fill="white"/>
<path d="M16.7935 7.40795C16.9594 7.40795 17.1253 7.40759 17.2911 7.40759L17.2875 7.4043C17.2888 7.57018 17.2898 7.73611 17.2911 7.90166C17.1253 7.90166 16.9594 7.90166 16.7935 7.90199C16.7945 7.7361 16.7958 7.57018 16.7968 7.4043L16.7935 7.40795Z" fill="white"/>
<path d="M16.7974 5.42864C16.6374 5.42864 16.4774 5.42864 16.3033 5.42864C16.3033 5.26012 16.3033 5.0975 16.3033 4.93457L16.2997 4.93823C16.4593 4.93823 16.6193 4.93823 16.7937 4.93823C16.7937 5.10642 16.7937 5.26934 16.7937 5.43226L16.7974 5.42864Z" fill="white"/>
<path d="M16.7937 5.92188C16.7937 6.08118 16.7937 6.24049 16.7937 6.42053C16.6279 6.42053 16.4659 6.42053 16.304 6.42053L16.3079 6.42382C16.3079 6.26189 16.3079 6.09961 16.3079 5.92517C16.4735 5.92517 16.6354 5.92517 16.7974 5.92517L16.7937 5.92188Z" fill="white"/>
<path d="M16.2987 6.91475C16.4587 6.91475 16.6183 6.91475 16.7927 6.91475C16.7927 7.08294 16.7927 7.2459 16.7927 7.40882L16.796 7.40517C16.6301 7.40648 16.4643 7.40751 16.2984 7.40882C16.2994 7.24294 16.3007 7.07702 16.3016 6.91113L16.2987 6.91475Z" fill="white"/>
<path d="M16.3024 4.93402C16.1365 4.93369 15.9706 4.93371 15.8044 4.93338L15.808 4.937C15.808 4.77769 15.808 4.61806 15.808 4.4502C15.9699 4.4502 16.1272 4.4502 16.2987 4.4502C16.2987 4.61279 16.2987 4.77537 16.2987 4.93764L16.3024 4.93402Z" fill="white"/>
<path d="M15.8048 6.41963C15.9723 6.42095 16.1398 6.42193 16.3074 6.42325L16.3034 6.41995C16.3021 6.58452 16.3005 6.74909 16.2988 6.91366L16.3021 6.91005C16.1362 6.91137 15.9703 6.91235 15.8044 6.91366C15.8054 6.74778 15.8067 6.5819 15.8077 6.41602L15.8048 6.41963Z" fill="white"/>
<path d="M15.8053 4.93359C15.8053 5.0929 15.8053 5.25253 15.8053 5.42072C15.6437 5.42072 15.4867 5.42072 15.3208 5.42072C15.3208 5.26503 15.3208 5.10803 15.3208 4.93721C15.484 4.93721 15.6463 4.93721 15.8086 4.93721L15.8053 4.93359Z" fill="white"/>
<path d="M15.3135 6.41974C15.3135 6.26011 15.3135 6.10081 15.3135 5.93262C15.4755 5.93262 15.6328 5.93262 15.804 5.93262C15.804 6.09488 15.804 6.25747 15.804 6.42006L15.8073 6.41644C15.6414 6.41644 15.4755 6.41644 15.3096 6.41644L15.3135 6.41974Z" fill="white"/>
<path d="M14.8158 6.41963C14.9817 6.41963 15.1476 6.41964 15.3135 6.41931L15.3099 6.41602C15.3112 6.5819 15.3122 6.74779 15.3135 6.91334C15.1476 6.91334 14.9817 6.91334 14.8155 6.91334C14.8168 6.74746 14.8178 6.58157 14.8191 6.41602L14.8158 6.41963Z" fill="white"/>
<path d="M14.8123 3.95606C14.8123 4.11832 14.8123 4.27302 14.8123 4.4343C14.653 4.4343 14.4983 4.4343 14.3337 4.4343C14.3337 4.28026 14.3337 4.12293 14.3337 3.95606C14.4864 3.95606 14.6441 3.95606 14.8123 3.95606Z" fill="white"/>
<path d="M14.3312 5.43609C14.3312 5.2735 14.3312 5.11123 14.3312 4.94238C14.4899 4.94238 14.6442 4.94238 14.8085 4.94238C14.8085 5.09708 14.8085 5.25441 14.8085 5.43248C14.6511 5.43248 14.4892 5.43248 14.3273 5.43248L14.3312 5.43609Z" fill="white"/>
<path d="M14.3226 5.92549C14.4826 5.92549 14.6422 5.92549 14.8167 5.92549C14.8167 6.09368 14.8167 6.2566 14.8167 6.41952L14.8199 6.41591C14.657 6.41591 14.4944 6.41591 14.3259 6.41591C14.3259 6.24146 14.3259 6.08151 14.3259 5.92188L14.3226 5.92549Z" fill="white"/>
<path d="M13.8276 5.43237C13.9951 5.43368 14.1627 5.43467 14.3302 5.43598L14.3262 5.43269C14.3249 5.59726 14.3233 5.76183 14.3216 5.9264L14.3249 5.92278C14.1591 5.9241 13.9932 5.92508 13.8273 5.9264C13.8283 5.76051 13.8296 5.5946 13.8306 5.42871L13.8276 5.43237Z" fill="white"/>
<path d="M13.341 3.44663C13.341 3.287 13.341 3.13233 13.341 2.96875C13.498 2.96875 13.6554 2.96875 13.8209 2.96875C13.8209 3.12476 13.8209 3.28206 13.8209 3.44663C13.6616 3.44663 13.5043 3.44663 13.341 3.44663Z" fill="white"/>
<path d="M13.8235 4.43662C13.6615 4.43662 13.5072 4.43662 13.3443 4.43662C13.3443 4.27731 13.3443 4.11998 13.3443 3.95508C13.5026 3.95508 13.6599 3.95508 13.8235 3.95508C13.8235 4.11372 13.8235 4.2681 13.8235 4.43662Z" fill="white"/>
<path d="M13.3375 5.43048C13.3375 5.27118 13.3375 5.11155 13.3375 4.94336C13.4994 4.94336 13.6567 4.94336 13.8279 4.94336C13.8279 5.10563 13.8279 5.26825 13.8279 5.43084L13.8312 5.42719C13.6653 5.42719 13.4994 5.42719 13.3335 5.42719L13.3375 5.43048Z" fill="white"/>
<path d="M12.8402 5.43233C13.0061 5.43233 13.172 5.43201 13.3375 5.43201L13.3339 5.42871C13.3349 5.5946 13.3362 5.76047 13.3372 5.92636C13.1713 5.92504 13.0054 5.92406 12.8395 5.92274L12.8432 5.92604C12.8432 5.76015 12.8435 5.5946 12.8435 5.42871L12.8402 5.43233Z" fill="white"/>
<path d="M12.3522 3.44702C12.3522 3.28508 12.3522 3.1307 12.3522 2.96777C12.5112 2.96777 12.6688 2.96777 12.8337 2.96777C12.8337 3.12609 12.8337 3.28344 12.8337 3.44702C12.6751 3.44702 12.5207 3.44702 12.3522 3.44702Z" fill="white"/>
<path d="M12.3539 4.44684C12.3539 4.28424 12.3539 4.12197 12.3539 3.95313C12.5126 3.95313 12.6669 3.95313 12.8312 3.95313C12.8312 4.10782 12.8312 4.26516 12.8312 4.44322C12.6738 4.44322 12.5119 4.44322 12.35 4.44322L12.3539 4.44684Z" fill="white"/>
<path d="M12.844 5.42825C12.6847 5.42825 12.5254 5.42825 12.345 5.42825C12.345 5.26236 12.345 5.10041 12.345 4.93848L12.3417 4.94241C12.5037 4.94241 12.6659 4.94241 12.8404 4.94241C12.8404 5.10764 12.8404 5.26961 12.8404 5.43155L12.844 5.42825Z" fill="white"/>
<path d="M12.35 6.4192C12.35 6.25924 12.35 6.09961 12.35 5.92517C12.5185 5.92517 12.6811 5.92517 12.844 5.92517L12.8404 5.92188C12.8404 6.0848 12.8404 6.24772 12.8404 6.41591C12.6659 6.41591 12.506 6.41591 12.3463 6.41591L12.35 6.4192Z" fill="white"/>
<path d="M11.8519 4.44307C12.0191 4.44406 12.1866 4.44537 12.3541 4.44669L12.3502 4.44339C12.3475 4.60961 12.3446 4.77583 12.3416 4.94204L12.3449 4.93811C12.1803 4.93646 12.0161 4.93482 11.8515 4.93284L11.8552 4.93646C11.8552 4.7709 11.8552 4.60534 11.8552 4.43945L11.8519 4.44307Z" fill="white"/>
<path d="M11.8513 6.41963C12.0172 6.41963 12.1831 6.41964 12.349 6.41931L12.3454 6.41602C12.3467 6.5819 12.3477 6.74779 12.349 6.91334C12.1831 6.91334 12.0172 6.91334 11.8513 6.91366C11.8523 6.74778 11.8536 6.5819 11.8546 6.41602L11.8513 6.41963Z" fill="white"/>
<path d="M11.3623 2.45477C11.3623 2.29284 11.3623 2.14142 11.3623 1.98047C11.5219 1.98047 11.6795 1.98047 11.8451 1.98047C11.8451 2.13582 11.8451 2.29317 11.8451 2.45477C11.6835 2.45477 11.5232 2.45477 11.3623 2.45477Z" fill="white"/>
<path d="M11.8477 2.96484C11.8477 3.12678 11.8477 3.28113 11.8477 3.44405C11.6887 3.44405 11.531 3.44405 11.3661 3.44405C11.3661 3.28573 11.3661 3.12843 11.3661 2.96484C11.5244 2.96484 11.6791 2.96484 11.8477 2.96484Z" fill="white"/>
<path d="M11.8553 4.4402C11.696 4.4402 11.5364 4.4402 11.3682 4.4402C11.3682 4.2786 11.3682 4.12161 11.3682 3.95606C11.5239 3.95606 11.6809 3.95606 11.8521 3.95606C11.8521 4.11898 11.8521 4.28155 11.8521 4.44382L11.8553 4.4402Z" fill="white"/>
<path d="M11.852 4.93359C11.852 5.0929 11.852 5.25253 11.852 5.42072C11.6904 5.42072 11.5334 5.42072 11.3675 5.42072C11.3675 5.26503 11.3675 5.10803 11.3675 4.93721C11.5308 4.93721 11.6931 4.93721 11.8553 4.93721L11.852 4.93359Z" fill="white"/>
<path d="M11.3616 6.41974C11.3616 6.26011 11.3616 6.10081 11.3616 5.93262C11.5236 5.93262 11.6809 5.93262 11.8521 5.93262C11.8521 6.09488 11.8521 6.25747 11.8521 6.42006L11.8553 6.41644C11.6895 6.41644 11.5236 6.41644 11.3577 6.41644L11.3616 6.41974Z" fill="white"/>
<path d="M10.864 6.41963C11.0299 6.41963 11.1958 6.41964 11.3617 6.41931L11.3581 6.41602C11.3594 6.5819 11.3604 6.74779 11.3617 6.91334C11.1958 6.91334 11.0299 6.91334 10.8637 6.91334C10.865 6.74746 10.866 6.58157 10.8673 6.41602L10.864 6.41963Z" fill="white"/>
<path d="M10.3737 1.46976C10.3737 1.30585 10.3737 1.15411 10.3737 0.993165C10.533 0.993165 10.6907 0.993165 10.8566 0.993165C10.8566 1.14753 10.8566 1.30486 10.8566 1.46976C10.6989 1.46976 10.5416 1.46976 10.3737 1.46976Z" fill="white"/>
<path d="M10.8566 3.44731C10.6917 3.44731 10.5373 3.44731 10.377 3.44731C10.377 3.28702 10.377 3.13266 10.377 2.96875C10.5333 2.96875 10.6907 2.96875 10.8566 2.96875C10.8566 3.12411 10.8566 3.28143 10.8566 3.44731Z" fill="white"/>
<path d="M10.3769 4.43494C10.3769 4.27366 10.3769 4.11931 10.3769 3.95606C10.5356 3.95606 10.6929 3.95606 10.8578 3.95606C10.8578 4.11371 10.8578 4.27103 10.8578 4.43494C10.7001 4.43494 10.5458 4.43494 10.3769 4.43494Z" fill="white"/>
<path d="M10.378 5.43609C10.378 5.2735 10.378 5.11123 10.378 4.94238C10.5366 4.94238 10.691 4.94238 10.8552 4.94238C10.8552 5.09708 10.8552 5.25441 10.8552 5.43248C10.6979 5.43248 10.5359 5.43248 10.374 5.43248L10.378 5.43609Z" fill="white"/>
<path d="M10.3695 5.92549C10.5295 5.92549 10.6891 5.92549 10.8635 5.92549C10.8635 6.09368 10.8635 6.2566 10.8635 6.41952L10.8668 6.41591C10.7039 6.41591 10.541 6.41591 10.3728 6.41591C10.3728 6.24146 10.3728 6.08151 10.3728 5.92188L10.3695 5.92549Z" fill="white"/>
<path d="M9.87546 5.43237C10.043 5.43368 10.2105 5.43467 10.3781 5.43598L10.3741 5.43269C10.3728 5.59726 10.3711 5.76183 10.3695 5.9264L10.3728 5.92278C10.2069 5.9241 10.041 5.92508 9.87514 5.9264C9.87613 5.76051 9.87745 5.5946 9.87843 5.42871L9.87546 5.43237Z" fill="white"/>
<path d="M20.7459 8.39554C20.9052 8.39554 21.0648 8.39554 21.233 8.39554C21.233 8.55748 21.233 8.71481 21.233 8.88563C21.0711 8.88563 20.9085 8.88563 20.7459 8.88563L20.7492 8.88925C20.7492 8.72336 20.7492 8.55749 20.7492 8.3916L20.7459 8.39554Z" fill="white"/>
<path d="M9.38947 1.4704C9.38947 1.31143 9.38947 1.15675 9.38947 0.993165C9.54581 0.993165 9.70313 0.993165 9.86902 0.993165C9.86902 1.14852 9.86902 1.30583 9.86902 1.4704C9.71037 1.4704 9.55305 1.4704 9.38947 1.4704Z" fill="white"/>
<path d="M9.3902 1.97363C9.55346 1.97363 9.70485 1.97363 9.86646 1.97363C9.86646 2.13261 9.86646 2.28995 9.86646 2.4565C9.71308 2.4565 9.55543 2.4565 9.3902 2.4565C9.3902 2.2995 9.3902 2.14215 9.3902 1.97363Z" fill="white"/>
<path d="M9.39126 2.96484C9.55517 2.96484 9.70986 2.96484 9.87048 2.96484C9.87048 3.12481 9.87048 3.2795 9.87048 3.44341C9.7148 3.44341 9.55747 3.44341 9.39126 3.44341C9.39126 3.28871 9.39126 3.13139 9.39126 2.96484Z" fill="white"/>
<path d="M9.38913 3.95215C9.55205 3.95215 9.70642 3.95215 9.86902 3.95215C9.86902 4.11244 9.86902 4.26977 9.86902 4.43401C9.70971 4.43401 9.55238 4.43401 9.38913 4.43401C9.38913 4.2747 9.38913 4.12001 9.38913 3.95215Z" fill="white"/>
<path d="M9.38434 5.43048C9.38434 5.27118 9.38434 5.11155 9.38434 4.94336C9.54628 4.94336 9.7036 4.94336 9.87476 4.94336C9.87476 5.10563 9.87476 5.26825 9.87476 5.43084L9.87805 5.42719C9.71216 5.42719 9.54627 5.42719 9.38038 5.42719L9.38434 5.43048Z" fill="white"/>
<path d="M8.89037 5.92604C8.89037 5.76015 8.89036 5.5946 8.89069 5.42871L8.88707 5.43233C9.05296 5.43233 9.21884 5.43201 9.3844 5.43201L9.38078 5.42871C9.38177 5.5946 9.38309 5.76047 9.38408 5.92636C9.21819 5.92504 9.0523 5.92406 8.88641 5.92274L8.89037 5.92604Z" fill="white"/>
<path d="M8.89003 12.8437C8.89003 12.6778 8.89003 12.5116 8.89003 12.3457L8.88673 12.3493C9.05262 12.3493 9.21851 12.3493 9.3844 12.3493L9.38078 12.3457C9.38078 12.5116 9.38078 12.6775 9.38078 12.8434L9.3844 12.8401C9.21851 12.8401 9.05262 12.8401 8.88673 12.8401L8.89003 12.8437Z" fill="white"/>
<path d="M8.40337 9.07209e-07C8.5663 9.14331e-07 8.72068 9.21079e-07 8.88196 9.28128e-07C8.88196 0.159634 8.88196 0.313994 8.88196 0.478564C8.72759 0.478564 8.56992 0.478564 8.40337 0.478564C8.40337 0.324856 8.40337 0.167533 8.40337 9.07209e-07Z" fill="white"/>
<path d="M8.88049 2.46333C8.71724 2.46333 8.56583 2.46333 8.40422 2.46333C8.40422 2.30469 8.40422 2.14701 8.40422 1.98047C8.5576 1.98047 8.71526 1.98047 8.88049 1.98047C8.88049 2.13747 8.88049 2.29481 8.88049 2.46333Z" fill="white"/>
<path d="M8.39765 3.44306C8.39765 3.28112 8.39765 3.1297 8.39765 2.96875C8.55728 2.96875 8.71494 2.96875 8.88049 2.96875C8.88049 3.12411 8.88049 3.28145 8.88049 3.44306C8.71889 3.44306 8.5586 3.44306 8.39765 3.44306Z" fill="white"/>
<path d="M8.87939 4.43657C8.71713 4.43657 8.56245 4.43657 8.40117 4.43657C8.40117 4.27727 8.40117 4.12258 8.40117 3.95801C8.55521 3.95801 8.71252 3.95801 8.87939 3.95801C8.87939 4.11073 8.87939 4.26838 8.87939 4.43657Z" fill="white"/>
<path d="M8.89087 5.42755C8.73157 5.42755 8.57194 5.42755 8.40375 5.42755C8.40375 5.26594 8.40375 5.10892 8.40375 4.94336C8.55943 4.94336 8.71642 4.94336 8.88757 4.94336C8.88757 5.10628 8.88757 5.2689 8.88757 5.43116L8.89087 5.42755Z" fill="white"/>
<path d="M8.39682 6.4192C8.39682 6.25924 8.39682 6.09961 8.39682 5.92517C8.56534 5.92517 8.72794 5.92517 8.89087 5.92517L8.88723 5.92188C8.88723 6.0848 8.88723 6.24772 8.88723 6.41591C8.71279 6.41591 8.55283 6.41591 8.3932 6.41591L8.39682 6.4192Z" fill="white"/>
<path d="M7.89833 6.41963C8.06421 6.41963 8.23011 6.41964 8.396 6.41931L8.39238 6.41602C8.3937 6.5819 8.39468 6.74779 8.396 6.91334C8.23011 6.91334 8.06421 6.91334 7.89833 6.91366C7.89932 6.74778 7.90064 6.5819 7.90162 6.41602L7.89833 6.41963Z" fill="white"/>
<path d="M20.2523 7.90205C20.4123 7.90205 20.5719 7.90205 20.7463 7.90205C20.7463 8.07025 20.7463 8.23316 20.7463 8.39609L20.7496 8.39247C20.5837 8.39379 20.4179 8.39477 20.252 8.39609C20.253 8.2302 20.2543 8.06433 20.2553 7.89844L20.2523 7.90205Z" fill="white"/>
<path d="M7.41337 4.94238C7.57234 4.94238 7.72671 4.94238 7.89062 4.94238C7.89062 5.09873 7.89062 5.25606 7.89062 5.42195C7.73527 5.42195 7.57794 5.42195 7.41337 5.42195C7.41337 5.26298 7.41337 5.10564 7.41337 4.94238Z" fill="white"/>
<path d="M7.40839 6.41974C7.40839 6.26011 7.40839 6.10081 7.40839 5.93262C7.57033 5.93262 7.72765 5.93262 7.8988 5.93262C7.8988 6.09488 7.8988 6.25747 7.8988 6.42006L7.9021 6.41644C7.73621 6.41644 7.57032 6.41644 7.40443 6.41644L7.40839 6.41974Z" fill="white"/>
<path d="M7.89861 11.8516C7.89861 12.0112 7.89861 12.1705 7.89861 12.3387C7.73667 12.3387 7.57934 12.3387 7.40819 12.3387C7.40819 12.1768 7.40819 12.0142 7.40819 11.8516L7.40457 11.8549C7.57046 11.8549 7.73633 11.8549 7.90222 11.8549L7.89861 11.8516Z" fill="white"/>
<path d="M6.91078 6.41963C7.07667 6.41963 7.24256 6.41964 7.40845 6.41931L7.40481 6.41602C7.40613 6.5819 7.40713 6.74779 7.40845 6.91334C7.24256 6.91334 7.07667 6.91334 6.91046 6.91334C6.91177 6.74746 6.91276 6.58157 6.91407 6.41602L6.91078 6.41963Z" fill="white"/>
<path d="M7.40857 11.8525C7.24268 11.8525 7.07679 11.8524 6.9109 11.8521L6.9142 11.8557C6.91288 11.6898 6.9119 11.524 6.91058 11.3584C7.07647 11.3584 7.24235 11.3584 7.40857 11.3584C7.40725 11.5243 7.40627 11.6902 7.40495 11.8557L7.40857 11.8525Z" fill="white"/>
<path d="M6.42462 5.43609C6.42462 5.2735 6.42462 5.11123 6.42462 4.94238C6.58326 4.94238 6.73761 4.94238 6.90186 4.94238C6.90186 5.09708 6.90186 5.25441 6.90186 5.43248C6.74453 5.43248 6.5826 5.43248 6.42066 5.43248L6.42462 5.43609Z" fill="white"/>
<path d="M6.416 5.92549C6.57597 5.92549 6.73559 5.92549 6.91004 5.92549C6.91004 6.09368 6.91004 6.2566 6.91004 6.41952L6.91333 6.41591C6.75041 6.41591 6.5878 6.41591 6.41928 6.41591C6.41928 6.24146 6.41928 6.08151 6.41928 5.92188L6.416 5.92549Z" fill="white"/>
<path d="M20.746 8.88672C20.746 9.04668 20.746 9.20631 20.746 9.38075C20.5775 9.38075 20.4146 9.38075 20.252 9.38075L20.2553 9.38437C20.2543 9.21848 20.253 9.05261 20.252 8.88672C20.4179 8.88804 20.5837 8.88902 20.7496 8.89034L20.746 8.88672Z" fill="white"/>
<path d="M6.90984 11.8516C6.90984 12.0112 6.90984 12.1705 6.90984 12.3387C6.74757 12.3387 6.59023 12.3387 6.41908 12.3387C6.41908 12.1765 6.41908 12.0138 6.41908 11.8516L6.4158 11.8552C6.58169 11.8552 6.74757 11.8552 6.91345 11.8552L6.90984 11.8516Z" fill="white"/>
<path d="M5.92219 5.43237C6.08973 5.43368 6.25727 5.43467 6.4248 5.43598L6.42085 5.43269C6.41953 5.59726 6.41789 5.76183 6.41625 5.9264L6.41952 5.92278C6.25363 5.9241 6.08776 5.92508 5.92187 5.9264C5.92286 5.76051 5.92418 5.5946 5.92517 5.42871L5.92219 5.43237Z" fill="white"/>
<path d="M19.7572 7.40795C19.9171 7.40795 20.0768 7.40795 20.2512 7.40795C20.2512 7.57614 20.2512 7.73906 20.2512 7.90199L20.2545 7.89837C20.0886 7.89936 19.9227 7.90068 19.7568 7.90166C19.7582 7.73578 19.7591 7.56986 19.7605 7.4043L19.7572 7.40795Z" fill="white"/>
<path d="M5.43231 5.43048C5.43231 5.27118 5.43231 5.11155 5.43231 4.94336C5.59425 4.94336 5.75158 4.94336 5.92273 4.94336C5.92273 5.10563 5.92273 5.26825 5.92273 5.43084L5.92603 5.42719C5.76014 5.42719 5.59424 5.42719 5.42836 5.42719L5.43231 5.43048Z" fill="white"/>
<path d="M4.9371 5.92604C4.9371 5.76015 4.93744 5.5946 4.93744 5.42871L4.93381 5.43233C5.09969 5.43233 5.26559 5.43201 5.43115 5.43201L5.42752 5.42871C5.4285 5.5946 5.42982 5.76047 5.43081 5.92636C5.26492 5.92504 5.09905 5.92406 4.93316 5.92274L4.9371 5.92604Z" fill="white"/>
<path d="M4.93726 5.42755C4.77795 5.42755 4.61831 5.42755 4.45011 5.42755C4.45011 5.26594 4.45011 5.10892 4.45011 4.94336C4.6058 4.94336 4.7628 4.94336 4.93362 4.94336C4.93362 5.10628 4.93362 5.2689 4.93362 5.43116L4.93726 5.42755Z" fill="white"/>
<path d="M4.44322 6.4192C4.44322 6.25924 4.44322 6.09961 4.44322 5.92517C4.61174 5.92517 4.77433 5.92517 4.93726 5.92517L4.93364 5.92188C4.93364 6.0848 4.93364 6.24772 4.93364 6.41591C4.7592 6.41591 4.59924 6.41591 4.43961 6.41591L4.44322 6.4192Z" fill="white"/>
<path d="M3.94594 6.41963C4.11182 6.41963 4.27772 6.41964 4.4436 6.41931L4.43997 6.41602C4.44128 6.5819 4.44229 6.74779 4.4436 6.91334C4.27772 6.91334 4.11182 6.91334 3.94594 6.91366C3.94692 6.74778 3.94824 6.5819 3.94923 6.41602L3.94594 6.41963Z" fill="white"/>
<path d="M3.94214 4.94238C3.94214 5.10366 3.94214 5.25801 3.94214 5.42127C3.78349 5.42127 3.62616 5.42127 3.46126 5.42127C3.46126 5.26361 3.46126 5.1063 3.46126 4.94238C3.61892 4.94238 3.77362 4.94238 3.94214 4.94238Z" fill="white"/>
<path d="M3.45478 6.41974C3.45478 6.26011 3.45478 6.10081 3.45478 5.93262C3.61671 5.93262 3.77404 5.93262 3.94519 5.93262C3.94519 6.09488 3.94519 6.25747 3.94519 6.42006L3.94849 6.41644C3.7826 6.41644 3.6167 6.41644 3.45082 6.41644L3.45478 6.41974Z" fill="white"/>
<path d="M3.94487 11.8516C3.94487 12.0112 3.94487 12.1705 3.94487 12.3387C3.78293 12.3387 3.62561 12.3387 3.45445 12.3387C3.45445 12.1768 3.45445 12.0142 3.45445 11.8516L3.45084 11.8549C3.61672 11.8549 3.7826 11.8549 3.94849 11.8549L3.94487 11.8516Z" fill="white"/>
<path d="M2.95717 6.41963C3.12305 6.41963 3.28895 6.41964 3.45483 6.41931L3.45122 6.41602C3.45253 6.5819 3.45352 6.74779 3.45483 6.91334C3.28895 6.91334 3.12306 6.91334 2.95684 6.91334C2.95816 6.74746 2.95914 6.58157 2.96046 6.41602L2.95717 6.41963Z" fill="white"/>
<path d="M3.45483 11.8525C3.28895 11.8525 3.12305 11.8524 2.95717 11.8521L2.96046 11.8557C2.95914 11.6898 2.95816 11.524 2.95684 11.3584C3.12273 11.3584 3.28862 11.3584 3.45483 11.3584C3.45352 11.5243 3.45253 11.6902 3.45122 11.8557L3.45483 11.8525Z" fill="white"/>
<path d="M2.47245 5.43609C2.47245 5.2735 2.47245 5.11123 2.47245 4.94238C2.6311 4.94238 2.78547 4.94238 2.94971 4.94238C2.94971 5.09708 2.94971 5.25441 2.94971 5.43248C2.79238 5.43248 2.63043 5.43248 2.46849 5.43248L2.47245 5.43609Z" fill="white"/>
<path d="M2.46237 5.92549C2.62233 5.92549 2.78198 5.92549 2.95642 5.92549C2.95642 6.09368 2.95642 6.2566 2.95642 6.41952L2.95972 6.41591C2.79679 6.41591 2.63418 6.41591 2.46566 6.41591C2.46566 6.24146 2.46566 6.08151 2.46566 5.92188L2.46237 5.92549Z" fill="white"/>
<path d="M20.2512 9.38086C20.2512 9.54082 20.2512 9.70048 20.2512 9.87525C20.0827 9.87525 19.9198 9.87525 19.7568 9.87525L19.7605 9.87855C19.7591 9.71266 19.7582 9.54674 19.7568 9.38118C19.9227 9.38217 20.0886 9.38349 20.2545 9.38448L20.2512 9.38086Z" fill="white"/>
<path d="M2.95757 11.8516C2.95757 12.0112 2.95757 12.1705 2.95757 12.3387C2.7953 12.3387 2.63798 12.3387 2.46683 12.3387C2.46683 12.1765 2.46683 12.0138 2.46683 11.8516L2.46353 11.8552C2.62942 11.8552 2.79529 11.8552 2.96118 11.8552L2.95757 11.8516Z" fill="white"/>
<path d="M1.9686 5.43237C2.13613 5.43368 2.30366 5.43467 2.47119 5.43598L2.46725 5.43269C2.46594 5.59726 2.46428 5.76183 2.46263 5.9264L2.46593 5.92278C2.30004 5.9241 2.13417 5.92508 1.96828 5.9264C1.96927 5.76051 1.97057 5.5946 1.97155 5.42871L1.9686 5.43237Z" fill="white"/>
<path d="M19.2632 6.91443C19.4232 6.91443 19.5831 6.91443 19.7576 6.91443C19.7576 7.08295 19.7576 7.2459 19.7576 7.40882L19.7609 7.40517C19.5979 7.40517 19.4354 7.40517 19.2668 7.40517C19.2668 7.23072 19.2668 7.07077 19.2668 6.91113L19.2632 6.91443Z" fill="white"/>
<path d="M1.4787 5.43048C1.4787 5.27118 1.4787 5.11155 1.4787 4.94336C1.64064 4.94336 1.79796 4.94336 1.96912 4.94336C1.96912 5.10563 1.96912 5.26825 1.96912 5.43084L1.97241 5.42719C1.80653 5.42719 1.64063 5.42719 1.47474 5.42719L1.4787 5.43048Z" fill="white"/>
<path d="M0.981433 5.43233C1.14732 5.43233 1.3132 5.43201 1.47876 5.43201L1.47514 5.42871C1.47613 5.5946 1.47743 5.76047 1.47842 5.92636C1.31253 5.92504 1.14666 5.92406 0.98077 5.92274L0.984386 5.92604C0.984386 5.76015 0.984708 5.5946 0.984708 5.42871L0.981433 5.43233Z" fill="white"/>
<path d="M0.985107 5.42787C0.825803 5.42787 0.666177 5.42787 0.497986 5.42787C0.497986 5.26626 0.497986 5.10892 0.497986 4.94336C0.653669 4.94336 0.810667 4.94336 0.981491 4.94336C0.981491 5.10661 0.981491 5.2689 0.981491 5.43116L0.985107 5.42787Z" fill="white"/>
<path d="M0.489611 6.4192C0.489611 6.25924 0.489611 6.09961 0.489611 5.92517C0.65813 5.92517 0.820718 5.92517 0.983643 5.92517L0.980027 5.92188C0.980027 6.0848 0.980027 6.24772 0.980027 6.41591C0.805582 6.41591 0.645607 6.41591 0.485974 6.41591L0.489611 6.4192Z" fill="white"/>
<path d="M0.489611 7.40846C0.489611 7.24257 0.489611 7.07669 0.489611 6.91113L0.485974 6.91443C0.648899 6.91443 0.811502 6.91443 0.983643 6.91443C0.983643 7.08887 0.983643 7.24883 0.983643 7.40846C0.817756 7.40747 0.651861 7.40615 0.485974 7.40517L0.489611 7.40846Z" fill="white"/>
<path d="M0.490754 8.39609C0.490754 8.2302 0.490754 8.06432 0.490754 7.89876L0.487118 7.90205C0.653005 7.90074 0.818899 7.89975 0.984786 7.89844C0.984786 8.06433 0.984778 8.2302 0.985107 8.39609C0.819221 8.3951 0.653346 8.39378 0.487459 8.39279L0.490754 8.39609Z" fill="white"/>
<path d="M0.490754 9.38469C0.490754 9.2188 0.490754 9.05293 0.490754 8.88704L0.487118 8.89034C0.653005 8.88902 0.818899 8.88804 0.984786 8.88672C0.984786 9.05261 0.984778 9.21848 0.985107 9.38437C0.819221 9.38338 0.653346 9.38206 0.487459 9.38107L0.490754 9.38469Z" fill="white"/>
<path d="M0.489611 10.3717C0.489611 10.2058 0.489611 10.0399 0.489611 9.87439L0.485974 9.87768C0.651861 9.87636 0.817756 9.87534 0.983643 9.87402C0.983643 10.0399 0.983643 10.2058 0.983643 10.372C0.817756 10.3707 0.651861 10.3697 0.485974 10.3684L0.489611 10.3717Z" fill="white"/>
<path d="M0.489669 6.91005C0.330036 6.91005 0.170718 6.91005 0.00252725 6.91005C0.00252725 6.74778 0.00252726 6.59046 0.00252727 6.41931C0.164794 6.41931 0.327395 6.41931 0.48999 6.41931L0.486374 6.41602C0.486374 6.5819 0.486374 6.74778 0.486374 6.91366L0.489669 6.91005Z" fill="white"/>
<path d="M0.489669 7.89837C0.330036 7.89837 0.170718 7.89837 0.00252725 7.89837C0.00252725 7.7361 0.00252726 7.57875 0.00252727 7.40759C0.164794 7.40759 0.327395 7.40759 0.48999 7.40759L0.486374 7.4043C0.486374 7.57018 0.486374 7.7361 0.486374 7.90199L0.489669 7.89837Z" fill="white"/>
<path d="M0.489669 8.88759C0.330036 8.88759 0.170718 8.88759 0.00252725 8.88759C0.00252725 8.72532 0.00252726 8.568 0.00252727 8.39685C0.164794 8.39685 0.327395 8.39685 0.48999 8.39685L0.486374 8.39356C0.486374 8.55944 0.486374 8.72532 0.486374 8.8912L0.489669 8.88759Z" fill="white"/>
<path d="M0.489669 9.87493C0.330036 9.87493 0.170718 9.87493 0.00252725 9.87493C0.00252725 9.71267 0.00252726 9.55531 0.00252727 9.38415C0.164794 9.38415 0.327395 9.38415 0.48999 9.38415L0.486374 9.38086C0.486374 9.54675 0.486374 9.71266 0.486374 9.87855L0.489669 9.87493Z" fill="white"/>
<path d="M0.489669 10.8632C0.330036 10.8632 0.170718 10.8632 0.00252725 10.8632C0.00252725 10.7009 0.00252726 10.5436 0.00252727 10.3724C0.164794 10.3724 0.327395 10.3724 0.48999 10.3724L0.486374 10.3691C0.486374 10.535 0.486374 10.7009 0.486374 10.8668L0.489669 10.8632Z" fill="white"/>
<path d="M14.3263 11.8556C14.1663 11.8556 14.0067 11.8556 13.8323 11.8556C13.8323 12.0238 13.8323 12.1868 13.8323 12.3497C13.6664 12.3484 13.5005 12.3474 13.3346 12.3461L13.3379 12.3497C13.3379 12.1871 13.3379 12.0245 13.3379 11.8626C13.1631 11.8626 13.0058 11.8626 12.8402 11.8626C12.8402 12.0307 12.8402 12.1904 12.8402 12.3497L12.8435 12.3461C12.6776 12.3474 12.5117 12.3484 12.3458 12.3497C12.3458 12.1897 12.3458 12.03 12.3458 11.8556C12.1773 11.8556 12.0147 11.8556 11.8518 11.8556C11.8531 11.6897 11.8541 11.5238 11.8554 11.358L11.8518 11.3613C12.0147 11.3613 12.1777 11.3613 12.3495 11.3613C12.3495 11.1835 12.3495 11.0236 12.3495 10.8636L12.3458 10.8669C12.5117 10.8659 12.6776 10.8646 12.8435 10.8636C12.8435 11.0262 12.8435 11.1888 12.8435 11.3507C13.0147 11.3507 13.172 11.3507 13.3343 11.3507C13.3343 11.1825 13.3343 11.0229 13.3343 10.8633C13.5002 10.8633 13.666 10.8633 13.8319 10.8636C13.8319 11.0265 13.8319 11.1894 13.8319 11.3609C14.006 11.3609 14.166 11.3609 14.326 11.3609L14.3223 11.3576C14.3237 11.5239 14.325 11.6897 14.3263 11.8556Z" fill="white"/>
<path d="M12.8399 12.8434C12.8408 12.6775 12.8422 12.5116 12.8432 12.3457L12.8399 12.3493C13.0057 12.3493 13.1716 12.3493 13.3375 12.3493L13.3342 12.3457C13.3352 12.5116 13.3365 12.6775 13.3375 12.8434C13.1716 12.8434 13.0057 12.8434 12.8399 12.8434Z" fill="white"/>
<path d="M11.855 11.3568C11.6891 11.3568 11.5232 11.3568 11.3573 11.3565L11.3606 11.3601C11.3606 11.1972 11.3606 11.0343 11.3606 10.8625C11.1829 10.8625 11.0229 10.8625 10.8629 10.8625L10.8665 10.8657C10.8656 10.6999 10.8643 10.5339 10.8633 10.3681C11.0262 10.3681 11.1891 10.3681 11.3573 10.3681C11.3573 10.1936 11.3573 10.0337 11.3573 9.87402C11.5232 9.87402 11.6891 9.87402 11.855 9.87435C11.855 10.0373 11.855 10.2002 11.855 10.3684C12.0294 10.3684 12.1894 10.3684 12.349 10.3684C12.3477 10.5343 12.3467 10.7002 12.3454 10.8657L12.349 10.8625C12.1861 10.8625 12.0231 10.8625 11.8513 10.8625C11.8513 11.0402 11.8513 11.2001 11.8513 11.3601L11.855 11.3568Z" fill="white"/>
<path d="M10.8641 11.8544C10.8655 11.6885 10.8664 11.5227 10.8678 11.3568L10.8641 11.3601C11.03 11.3601 11.1959 11.3601 11.3618 11.3601L11.3585 11.3564C11.3595 11.5223 11.3608 11.6882 11.3618 11.8541C11.1959 11.8544 11.03 11.8544 10.8641 11.8544Z" fill="white"/>
<path d="M10.3692 11.3606C10.3705 11.1947 10.3715 11.0288 10.3728 10.8633L10.3692 10.8666C10.5351 10.8666 10.7009 10.8666 10.8668 10.8666L10.8632 10.8633C10.8632 11.0292 10.8632 11.195 10.8632 11.3609L10.8668 11.3577C10.7009 11.3583 10.5351 11.3593 10.3692 11.3606Z" fill="white"/>
<path d="M9.8755 10.8668C9.87682 10.7009 9.8778 10.535 9.87912 10.3691L9.8755 10.3724C10.0414 10.3714 10.2073 10.3701 10.3732 10.3691C10.3719 10.535 10.3708 10.7009 10.3695 10.8665L10.3732 10.8632C10.2076 10.8645 10.0414 10.8655 9.8755 10.8668Z" fill="white"/>
<path d="M9.87805 10.3684C9.71216 10.3684 9.54629 10.3681 9.3804 10.3681L9.3837 10.3717C9.38271 10.2058 9.38139 10.0399 9.3804 9.87402C9.54629 9.87402 9.71216 9.87406 9.87805 9.87439C9.87674 10.0403 9.87575 10.2062 9.87444 10.3717L9.87805 10.3684Z" fill="white"/>
<path d="M8.88673 10.8671C8.88805 10.7012 8.88905 10.5353 8.89037 10.3695L8.88673 10.3728C9.05262 10.3728 9.21851 10.3728 9.3844 10.3728L9.3811 10.3691C9.38209 10.535 9.38341 10.7009 9.3844 10.8668C9.21818 10.8671 9.05262 10.8671 8.88673 10.8671Z" fill="white"/>
<path d="M7.4043 11.3617C7.4043 11.2017 7.4043 11.0421 7.4043 10.864C7.23578 10.864 7.07317 10.864 6.91024 10.864L6.91354 10.8677C6.91255 10.7018 6.91123 10.5359 6.91024 10.37C7.07317 10.37 7.23611 10.37 7.4043 10.37C7.4043 10.1956 7.4043 10.0356 7.4043 9.87598C7.57018 9.87598 7.73606 9.87597 7.90194 9.8763C7.90194 10.0392 7.90194 10.2021 7.90194 10.3736C8.07606 10.3736 8.23603 10.3736 8.396 10.3736L8.39238 10.3703C8.3937 10.5362 8.39468 10.7021 8.396 10.868C8.23603 10.868 8.07639 10.868 7.90194 10.868C7.90194 11.0362 7.90194 11.1991 7.90194 11.362C7.73606 11.3617 7.57018 11.3617 7.4043 11.3617Z" fill="white"/>
<path d="M8.89087 10.37C8.72498 10.37 8.55877 10.37 8.39288 10.37L8.3965 10.3733C8.39518 10.2074 8.3942 10.0415 8.39288 9.87598C8.55877 9.87598 8.72465 9.87598 8.89087 9.87598C8.88955 10.0419 8.88855 10.2077 8.88723 10.3733L8.89087 10.37Z" fill="white"/>
<path d="M6.91004 10.8633C6.91102 11.0292 6.91234 11.195 6.91333 11.3609C6.74744 11.3609 6.58155 11.3609 6.41566 11.3609C6.41698 11.195 6.41796 11.0292 6.41928 10.8636L6.41566 10.8669C6.58155 10.8669 6.74744 10.8669 6.91333 10.8669L6.91004 10.8633Z" fill="white"/>
<path d="M5.92201 10.8668C5.92333 10.7009 5.92431 10.535 5.92563 10.3691L5.92201 10.3724C6.0879 10.3714 6.25379 10.3701 6.41968 10.3691C6.41836 10.535 6.41738 10.7009 6.41606 10.8665L6.41968 10.8632C6.25379 10.8645 6.0879 10.8655 5.92201 10.8668Z" fill="white"/>
<path d="M5.92603 10.3684C5.76014 10.3684 5.59426 10.3681 5.42838 10.3681L5.43167 10.3717C5.43068 10.2058 5.42936 10.0399 5.42838 9.87402C5.59426 9.87402 5.76014 9.87406 5.92603 9.87439C5.92471 10.0403 5.92373 10.2062 5.92241 10.3717L5.92603 10.3684Z" fill="white"/>
<path d="M4.93348 10.8671C4.9348 10.7012 4.93578 10.5353 4.9371 10.3695L4.93348 10.3728C5.09937 10.3728 5.26527 10.3728 5.43115 10.3728L5.42786 10.3691C5.42885 10.535 5.43016 10.7009 5.43115 10.8668C5.26527 10.8671 5.09937 10.8671 4.93348 10.8671Z" fill="white"/>
<path d="M3.4519 11.3617C3.4519 11.2017 3.4519 11.0421 3.4519 10.864C3.28338 10.864 3.12078 10.864 2.95785 10.864L2.96115 10.8677C2.96016 10.7018 2.95884 10.5359 2.95785 10.37C3.12078 10.37 3.28371 10.37 3.4519 10.37C3.4519 10.1956 3.4519 10.0356 3.4519 9.87598C3.61779 9.87598 3.78366 9.87597 3.94955 9.8763C3.94955 10.0392 3.94955 10.2021 3.94955 10.3736C4.12367 10.3736 4.28364 10.3736 4.4436 10.3736L4.43997 10.3703C4.44128 10.5362 4.44229 10.7021 4.4436 10.868C4.28364 10.868 4.124 10.868 3.94955 10.868C3.94955 11.0362 3.94955 11.1991 3.94955 11.362C3.78366 11.3617 3.61779 11.3617 3.4519 11.3617Z" fill="white"/>
<path d="M4.93726 10.37C4.77137 10.37 4.60515 10.37 4.43927 10.37L4.4429 10.3733C4.44159 10.2074 4.44058 10.0415 4.43927 9.87598C4.60515 9.87598 4.77104 9.87598 4.93726 9.87598C4.93594 10.0419 4.93496 10.2077 4.93364 10.3733L4.93726 10.37Z" fill="white"/>
<path d="M2.95789 10.8633C2.95887 11.0292 2.96019 11.195 2.96118 11.3609C2.79529 11.3609 2.6294 11.3609 2.46351 11.3609C2.46483 11.195 2.46583 11.0292 2.46715 10.8636L2.46351 10.8669C2.6294 10.8669 2.79529 10.8669 2.96118 10.8669L2.95789 10.8633Z" fill="white"/>
<path d="M1.96864 10.8668C1.96996 10.7009 1.97094 10.535 1.97226 10.3691L1.96864 10.3724C2.13453 10.3714 2.30042 10.3701 2.46631 10.3691C2.46499 10.535 2.46399 10.7009 2.46267 10.8665L2.46631 10.8632C2.30042 10.8645 2.13453 10.8655 1.96864 10.8668Z" fill="white"/>
<path d="M1.47476 10.3717C1.47608 10.2058 1.47706 10.0399 1.47838 9.87402L1.47476 9.87732C1.64065 9.87633 1.80653 9.87501 1.97241 9.87402C1.9711 10.0399 1.97011 10.2058 1.9688 10.3714L1.97241 10.3681C1.80653 10.3694 1.64065 10.3707 1.47476 10.3717Z" fill="white"/>
<path d="M0.981112 10.3691C1.147 10.3691 1.31287 10.3691 1.47876 10.3691C1.47876 10.535 1.47876 10.7009 1.47876 10.8668C1.31287 10.8668 1.147 10.8668 0.981112 10.8668C0.981112 10.7009 0.981112 10.535 0.981112 10.3691Z" fill="white"/>
<path d="M16.3024 10.8661C16.1424 10.8661 15.9828 10.8661 15.8083 10.8661C15.8083 11.0343 15.8083 11.1972 15.8083 11.3601C15.6424 11.3588 15.4766 11.3578 15.3107 11.3565L15.314 11.3601C15.314 11.1972 15.314 11.0343 15.314 10.8625C15.1362 10.8625 14.9763 10.8625 14.8163 10.8625L14.8196 10.8657C14.8186 10.6999 14.8173 10.534 14.8163 10.3681C14.9792 10.3681 15.1421 10.3681 15.3103 10.3681C15.3103 10.1937 15.3103 10.0337 15.3103 9.87402C15.4762 9.87402 15.6421 9.87406 15.808 9.87439C15.808 10.0373 15.808 10.2002 15.808 10.3717C15.9821 10.3717 16.1421 10.3717 16.302 10.3717L16.2984 10.3684C16.2997 10.5343 16.3011 10.7002 16.3024 10.8661Z" fill="white"/>
<path d="M14.8158 11.8544C14.8171 11.6885 14.8181 11.5227 14.8194 11.3568L14.8158 11.3601C14.9817 11.3601 15.1476 11.3601 15.3135 11.3601L15.3102 11.3564C15.3112 11.5223 15.3125 11.6882 15.3135 11.8541C15.1473 11.8544 14.9814 11.8544 14.8158 11.8544Z" fill="white"/>
<path d="M14.8199 11.3573C14.6541 11.3573 14.4878 11.3573 14.322 11.3573L14.3256 11.3606C14.3243 11.1947 14.3233 11.0288 14.322 10.8633C14.4878 10.8643 14.6537 10.8656 14.8196 10.8666L14.8163 10.8633C14.8163 11.0292 14.8163 11.195 14.8163 11.3609L14.8199 11.3573Z" fill="white"/>
<path d="M17.286 10.3691C17.2874 10.535 17.2884 10.7009 17.2897 10.8668C17.1238 10.8668 16.9579 10.8668 16.792 10.8668C16.7933 10.7009 16.7943 10.535 16.7956 10.3691L16.792 10.3724C16.9579 10.3724 17.1238 10.3724 17.2897 10.3724L17.286 10.3691Z" fill="white"/>
<path d="M16.796 10.37C16.6301 10.37 16.4639 10.37 16.298 10.37L16.3016 10.3733C16.3003 10.2074 16.2993 10.0415 16.298 9.87598C16.4639 9.87598 16.6298 9.87598 16.796 9.87598C16.7947 10.0419 16.7937 10.2077 16.7924 10.3733L16.796 10.37Z" fill="white"/>
<path d="M19.7572 8.88672C19.7586 9.05261 19.7595 9.21848 19.7609 9.38437C19.595 9.38437 19.4291 9.38437 19.2632 9.38437C19.2645 9.21848 19.2655 9.05261 19.2668 8.88672L19.2632 8.89001C19.4291 8.89001 19.595 8.89001 19.7609 8.89001L19.7572 8.88672Z" fill="white"/>
<path d="M19.7609 7.89844C19.7595 8.06433 19.7586 8.2302 19.7572 8.39609L19.7609 8.39279C19.595 8.39279 19.4291 8.39279 19.2632 8.39279L19.2668 8.39609C19.2668 8.23645 19.2668 8.0765 19.2668 7.89844C19.4354 7.89844 19.5979 7.89844 19.7609 7.89844Z" fill="white"/>
<path d="M19.2671 8.88596C19.1012 8.88596 18.9353 8.88596 18.7694 8.88563L18.7727 8.88925C18.7727 8.72336 18.7727 8.55749 18.7727 8.3916L18.7694 8.39522C18.9353 8.39522 19.1012 8.3949 19.2671 8.3949L19.2635 8.3916C19.2635 8.55749 19.2635 8.72336 19.2635 8.88925L19.2671 8.88596Z" fill="white"/>
<path d="M18.2784 8.39609C18.2771 8.2302 18.2761 8.06433 18.2748 7.89844C18.4347 7.89844 18.5944 7.89844 18.7688 7.89844C18.7688 8.07058 18.7688 8.23349 18.7688 8.39609L18.7721 8.39247C18.6062 8.39247 18.4403 8.39247 18.2744 8.39247L18.2784 8.39609Z" fill="white"/>
<path d="M18.7734 9.38437C18.6076 9.38305 18.4417 9.38207 18.2758 9.38075L18.2791 9.38437C18.2791 9.21848 18.2791 9.05261 18.2791 8.88672L18.2758 8.89034C18.4417 8.89034 18.6076 8.89034 18.7734 8.89034L18.7702 8.88672C18.7712 9.05261 18.7721 9.21848 18.7734 9.38437Z" fill="white"/>
<path d="M18.2783 9.87855C18.1124 9.87723 17.9465 9.87621 17.7807 9.87489L17.7839 9.87855C17.783 9.71266 17.7816 9.54675 17.7807 9.38086C17.9465 9.38218 18.1124 9.38316 18.2783 9.38448L18.275 9.38086C18.276 9.54675 18.2773 9.71266 18.2783 9.87855Z" fill="white"/>
<path d="M17.7848 10.3717C17.6189 10.3704 17.453 10.3694 17.2871 10.3684L17.2908 10.3717C17.2894 10.2058 17.2885 10.0399 17.2871 9.87439C17.453 9.87537 17.6189 9.87669 17.7848 9.87768L17.7815 9.87402C17.7825 10.0399 17.7835 10.2058 17.7848 10.3717Z" fill="white"/>
<path d="M17.7807 8.39717C17.9466 8.39717 18.1124 8.39685 18.2783 8.39685L18.2747 8.39356C18.2747 8.55944 18.2747 8.72532 18.2747 8.8912L18.278 8.88759C18.1121 8.8889 17.9462 8.88989 17.7803 8.8912C17.7813 8.72532 17.7826 8.55944 17.7836 8.39356L17.7807 8.39717Z" fill="white"/>
<path d="M17.2908 8.39609C17.2894 8.2302 17.2885 8.06433 17.2871 7.89844C17.453 7.89844 17.6189 7.89844 17.7848 7.89844C17.7838 8.06433 17.7825 8.2302 17.7815 8.39609L17.7848 8.39247C17.6189 8.39247 17.453 8.39247 17.2871 8.39247L17.2908 8.39609Z" fill="white"/>
<path d="M16.7935 8.39717C16.9594 8.39717 17.1253 8.39685 17.2911 8.39685L17.2875 8.39356C17.2888 8.55944 17.2898 8.72532 17.2911 8.89088C17.1253 8.89088 16.9594 8.89087 16.7935 8.8912C16.7945 8.72532 16.7958 8.55944 16.7968 8.39356L16.7935 8.39717Z" fill="white"/>
<path d="M16.2984 7.90205C16.4642 7.90074 16.6301 7.89975 16.796 7.89844C16.795 8.06433 16.7937 8.2302 16.7927 8.39609L16.796 8.39247C16.6301 8.39379 16.4642 8.39477 16.2984 8.39609C16.2993 8.2302 16.3007 8.06433 16.3016 7.89844L16.2984 7.90205Z" fill="white"/>
<path d="M15.8083 7.90199C15.807 7.7361 15.806 7.57018 15.8047 7.4043C15.9706 7.4043 16.1365 7.4043 16.3024 7.4043C16.3014 7.57018 16.3001 7.7361 16.2991 7.90199L16.3024 7.89833C16.1365 7.89833 15.9706 7.89833 15.8047 7.89833L15.8083 7.90199Z" fill="white"/>
<path d="M15.8086 7.40683C15.6486 7.40683 15.489 7.40683 15.3109 7.40683C15.3109 7.23502 15.3109 7.07211 15.3109 6.90918C15.4768 6.90918 15.6427 6.90918 15.8086 6.90918C15.8086 7.07507 15.8086 7.24094 15.8086 7.40683Z" fill="white"/>
<path d="M14.8199 6.91113C14.8199 7.07077 14.8199 7.23076 14.8199 7.40882C14.6481 7.40882 14.4852 7.40882 14.3223 7.40882C14.3223 7.24886 14.3223 7.0892 14.3223 6.91113C14.4944 6.91113 14.657 6.91113 14.8199 6.91113Z" fill="white"/>
<path d="M14.3263 7.4043C14.325 7.57018 14.324 7.73611 14.3227 7.90166L14.3263 7.89837C14.1604 7.89969 13.9945 7.90067 13.8286 7.90199C13.8296 7.7361 13.8309 7.57018 13.8319 7.4043L13.8286 7.40795C13.9945 7.40664 14.1604 7.40529 14.3263 7.4043Z" fill="white"/>
<path d="M13.3335 5.92188C13.4994 5.92188 13.6653 5.92188 13.8312 5.92188C13.8312 6.08118 13.8312 6.24081 13.8312 6.409C13.6656 6.409 13.5083 6.409 13.3335 6.409C13.3335 6.24673 13.3335 6.08447 13.3335 5.92188Z" fill="white"/>
<path d="M13.3375 7.40802C13.3375 7.24872 13.3375 7.08909 13.3375 6.9209C13.4994 6.9209 13.6567 6.9209 13.8279 6.9209C13.8279 7.08317 13.8279 7.24579 13.8279 7.40838L13.8312 7.40473C13.6653 7.40473 13.4994 7.40473 13.3335 7.40473L13.3375 7.40802Z" fill="white"/>
<path d="M12.8399 7.40795C13.0057 7.40795 13.1716 7.40792 13.3375 7.40759L13.3339 7.4043C13.3352 7.57018 13.3362 7.73611 13.3375 7.90166C13.1716 7.90166 13.0057 7.90166 12.8399 7.90199C12.8408 7.7361 12.8422 7.57018 12.8432 7.4043L12.8399 7.40795Z" fill="white"/>
<path d="M12.3489 7.40846C12.3476 7.24257 12.3466 7.07669 12.3453 6.91113C12.5053 6.91113 12.6649 6.91113 12.8394 6.91113C12.8394 7.08327 12.8394 7.2459 12.8394 7.40882L12.8427 7.40517C12.6768 7.40517 12.5109 7.40517 12.345 7.40517L12.3489 7.40846Z" fill="white"/>
<path d="M15.3146 8.39674C15.3146 8.23678 15.3146 8.07715 15.3146 7.90271C15.4831 7.90271 15.6457 7.90271 15.8086 7.90271L15.805 7.89941C15.8063 8.0653 15.8073 8.23118 15.8086 8.39674C15.6427 8.39575 15.4768 8.39443 15.3109 8.39345L15.3146 8.39674Z" fill="white"/>
<path d="M14.8158 8.39717C14.9817 8.39717 15.1476 8.39685 15.3135 8.39685L15.3099 8.39356C15.3112 8.55944 15.3122 8.72532 15.3135 8.89088C15.1476 8.89088 14.9817 8.89087 14.8158 8.8912C14.8168 8.72532 14.8181 8.55944 14.8191 8.39356L14.8158 8.39717Z" fill="white"/>
<path d="M14.3223 7.90173C14.4822 7.90173 14.6422 7.90173 14.8167 7.90173C14.8167 8.07025 14.8167 8.23316 14.8167 8.39609L14.8199 8.39247C14.6541 8.39346 14.4882 8.39478 14.3223 8.39577C14.3236 8.22988 14.3246 8.064 14.3259 7.89844L14.3223 7.90173Z" fill="white"/>
<path d="M11.856 7.90199C11.8547 7.7361 11.8537 7.57018 11.8524 7.4043C12.0182 7.40561 12.1841 7.4066 12.3503 7.40759L12.3467 7.4043C12.348 7.57018 12.349 7.73607 12.3503 7.90162C12.1845 7.90064 12.0186 7.89932 11.8527 7.89833L11.856 7.90199Z" fill="white"/>
<path d="M11.8553 7.40683C11.6954 7.40683 11.5358 7.40683 11.3577 7.40683C11.3577 7.23502 11.3577 7.07211 11.3577 6.90918C11.5236 6.90918 11.6895 6.90918 11.8553 6.90918C11.8553 7.07507 11.8553 7.24094 11.8553 7.40683Z" fill="white"/>
<path d="M10.8668 6.91113C10.8668 7.07077 10.8668 7.23076 10.8668 7.40882C10.695 7.40882 10.5321 7.40882 10.3692 7.40882C10.3692 7.24886 10.3692 7.0892 10.3692 6.91113C10.5413 6.91113 10.7042 6.91113 10.8668 6.91113Z" fill="white"/>
<path d="M10.3732 7.4043C10.3719 7.57018 10.3708 7.73611 10.3695 7.90166L10.3732 7.89837C10.2073 7.89969 10.0414 7.90067 9.8755 7.90199C9.87649 7.7361 9.87781 7.57018 9.8788 7.4043L9.8755 7.40795C10.0414 7.40664 10.2073 7.40529 10.3732 7.4043Z" fill="white"/>
<path d="M9.3804 5.92188C9.54629 5.92188 9.71216 5.92188 9.87805 5.92188C9.87805 6.08118 9.87805 6.24081 9.87805 6.409C9.71249 6.409 9.55518 6.409 9.3804 6.409C9.3804 6.24673 9.3804 6.08447 9.3804 5.92188Z" fill="white"/>
<path d="M9.38434 7.40802C9.38434 7.24872 9.38434 7.08909 9.38434 6.9209C9.54628 6.9209 9.7036 6.9209 9.87476 6.9209C9.87476 7.08317 9.87476 7.24579 9.87476 7.40838L9.87805 7.40473C9.71216 7.40473 9.54627 7.40473 9.38038 7.40473L9.38434 7.40802Z" fill="white"/>
<path d="M8.88673 7.40795C9.05262 7.40795 9.21851 7.40792 9.3844 7.40759L9.38078 7.4043C9.3821 7.57018 9.38308 7.73611 9.3844 7.90166C9.21851 7.90166 9.05262 7.90166 8.88673 7.90199C8.88772 7.7361 8.88904 7.57018 8.89003 7.4043L8.88673 7.40795Z" fill="white"/>
<path d="M8.39716 7.40846C8.39584 7.24257 8.39486 7.07669 8.39354 6.91113C8.5535 6.91113 8.71313 6.91113 8.88757 6.91113C8.88757 7.08327 8.88757 7.2459 8.88757 7.40882L8.89087 7.40517C8.72498 7.40517 8.55911 7.40517 8.39322 7.40517L8.39716 7.40846Z" fill="white"/>
<path d="M11.3613 8.39674C11.3613 8.23678 11.3613 8.07715 11.3613 7.90271C11.5298 7.90271 11.6924 7.90271 11.8553 7.90271L11.8517 7.89941C11.853 8.0653 11.854 8.23118 11.8553 8.39674C11.6895 8.39575 11.5236 8.39443 11.3577 8.39345L11.3613 8.39674Z" fill="white"/>
<path d="M10.864 8.39717C11.0299 8.39717 11.1958 8.39685 11.3617 8.39685L11.3581 8.39356C11.3594 8.55944 11.3604 8.72532 11.3617 8.89088C11.1958 8.89088 11.0299 8.89087 10.864 8.8912C10.865 8.72532 10.8663 8.55944 10.8673 8.39356L10.864 8.39717Z" fill="white"/>
<path d="M10.3692 7.90173C10.5291 7.90173 10.6891 7.90173 10.8635 7.90173C10.8635 8.07025 10.8635 8.23316 10.8635 8.39609L10.8668 8.39247C10.7009 8.39346 10.535 8.39478 10.3692 8.39577C10.3705 8.22988 10.3715 8.064 10.3728 7.89844L10.3692 7.90173Z" fill="white"/>
<path d="M20.256 8.8912C20.0901 8.89022 19.9242 8.8889 19.758 8.88791L19.7616 8.8912C19.7616 8.72532 19.7616 8.55944 19.7616 8.39356L19.758 8.39685C19.9239 8.39586 20.0898 8.39454 20.256 8.39356C20.256 8.55944 20.256 8.72532 20.256 8.8912Z" fill="white"/>
<path d="M7.90284 7.90166C7.90153 7.73578 7.90054 7.56986 7.89923 7.4043C8.06511 7.40529 8.231 7.4066 8.39722 7.40759L8.3936 7.4043C8.39492 7.57018 8.3959 7.73611 8.39722 7.90166C8.23133 7.90068 8.06546 7.89936 7.89957 7.89837L7.90284 7.90166Z" fill="white"/>
<path d="M7.9021 7.40683C7.74214 7.40683 7.5825 7.40683 7.40443 7.40683C7.40443 7.23502 7.40443 7.07211 7.40443 6.90918C7.57032 6.90918 7.73621 6.90918 7.9021 6.90918C7.9021 7.07507 7.9021 7.24094 7.9021 7.40683Z" fill="white"/>
<path d="M6.91333 6.91113C6.91333 7.07077 6.91333 7.23076 6.91333 7.40882C6.74152 7.40882 6.57861 7.40882 6.41568 7.40882C6.41568 7.24886 6.41568 7.0892 6.41568 6.91113C6.58749 6.91113 6.75041 6.91113 6.91333 6.91113Z" fill="white"/>
<path d="M6.41968 7.4043C6.41836 7.57018 6.41738 7.7361 6.41606 7.90199L6.41968 7.89869C6.25379 7.90001 6.08792 7.90099 5.92203 7.90231C5.92302 7.73642 5.92434 7.57055 5.92532 7.40466L5.92203 7.40828C6.08825 7.40663 6.25412 7.40529 6.41968 7.4043Z" fill="white"/>
<path d="M5.42836 5.92188C5.59424 5.92188 5.76014 5.92188 5.92603 5.92188C5.92603 6.08118 5.92603 6.24081 5.92603 6.409C5.76047 6.409 5.60313 6.409 5.42836 6.409C5.42836 6.24673 5.42836 6.08447 5.42836 5.92188Z" fill="white"/>
<path d="M5.43231 7.40802C5.43231 7.24872 5.43231 7.08909 5.43231 6.9209C5.59425 6.9209 5.75158 6.9209 5.92273 6.9209C5.92273 7.08317 5.92273 7.24579 5.92273 7.40838L5.92603 7.40473C5.76014 7.40473 5.59424 7.40473 5.42836 7.40473L5.43231 7.40802Z" fill="white"/>
<path d="M4.93348 7.40795C5.09937 7.40795 5.26527 7.40792 5.43115 7.40759L5.42752 7.4043C5.42883 7.57018 5.42984 7.73611 5.43115 7.90166C5.26527 7.90166 5.09937 7.90166 4.93348 7.90199C4.93447 7.7361 4.93579 7.57018 4.93678 7.4043L4.93348 7.40795Z" fill="white"/>
<path d="M4.44355 7.40846C4.44223 7.24257 4.44125 7.07669 4.43993 6.91113C4.59989 6.91113 4.75952 6.91113 4.93396 6.91113C4.93396 7.08327 4.93396 7.2459 4.93396 7.40882L4.93726 7.40517C4.77137 7.40517 4.60547 7.40517 4.43959 7.40517L4.44355 7.40846Z" fill="white"/>
<path d="M7.40807 8.39674C7.40807 8.23678 7.40807 8.07715 7.40807 7.90271C7.57659 7.90271 7.73918 7.90271 7.9021 7.90271L7.89848 7.89941C7.8998 8.0653 7.90078 8.23118 7.9021 8.39674C7.73621 8.39575 7.57034 8.39443 7.40445 8.39345L7.40807 8.39674Z" fill="white"/>
<path d="M6.91078 8.39717C7.07667 8.39717 7.24256 8.39685 7.40845 8.39685L7.40481 8.39356C7.40613 8.55944 7.40713 8.72532 7.40845 8.89088C7.24256 8.89088 7.07667 8.89087 6.91078 8.8912C6.91177 8.72532 6.91309 8.55944 6.91407 8.39356L6.91078 8.39717Z" fill="white"/>
<path d="M6.41566 7.90173C6.57562 7.90173 6.73559 7.90173 6.91004 7.90173C6.91004 8.07025 6.91004 8.23316 6.91004 8.39609L6.91333 8.39247C6.74744 8.39346 6.58155 8.39478 6.41566 8.39577C6.41698 8.22988 6.41796 8.064 6.41928 7.89844L6.41566 7.90173Z" fill="white"/>
<path d="M3.94925 7.90166C3.94793 7.73578 3.94693 7.56986 3.94561 7.4043C4.1115 7.40529 4.27739 7.4066 4.4436 7.40759L4.43999 7.4043C4.4413 7.57018 4.44229 7.73611 4.4436 7.90166C4.27772 7.90068 4.11184 7.89936 3.94596 7.89837L3.94925 7.90166Z" fill="white"/>
<path d="M3.94849 7.40683C3.78852 7.40683 3.6289 7.40683 3.45084 7.40683C3.45084 7.23502 3.45084 7.07211 3.45084 6.90918C3.61672 6.90918 3.7826 6.90918 3.94849 6.90918C3.94849 7.07507 3.94849 7.24094 3.94849 7.40683Z" fill="white"/>
<path d="M2.46631 7.4043C2.46499 7.57018 2.46399 7.7361 2.46267 7.90199L2.46631 7.89869C2.30042 7.89869 2.13453 7.89869 1.96864 7.89869L1.97193 7.90199C1.97193 7.7361 1.97193 7.57018 1.97194 7.4043L1.96864 7.40795C2.13453 7.40664 2.30042 7.40529 2.46631 7.4043Z" fill="white"/>
<path d="M1.47476 5.92188C1.64065 5.92188 1.80653 5.92188 1.97241 5.92188C1.97241 6.08118 1.97241 6.24081 1.97241 6.409C1.80685 6.409 1.64954 6.409 1.47476 6.409C1.47476 6.24673 1.47476 6.08447 1.47476 5.92188Z" fill="white"/>
<path d="M1.4787 7.40802C1.4787 7.24872 1.4787 7.08909 1.4787 6.9209C1.64064 6.9209 1.79796 6.9209 1.96912 6.9209C1.96912 7.08317 1.96912 7.24579 1.96912 7.40838L1.97241 7.40473C1.80653 7.40473 1.64063 7.40473 1.47474 7.40473L1.4787 7.40802Z" fill="white"/>
<path d="M1.47876 7.89833C1.31287 7.89965 1.147 7.90067 0.981112 7.90199C0.981112 7.7361 0.981112 7.57018 0.981112 7.4043C1.147 7.40561 1.31287 7.4066 1.47876 7.40759L1.47514 7.4043C1.47514 7.57018 1.47514 7.7361 1.47514 7.90199L1.47876 7.89833Z" fill="white"/>
<path d="M2.96118 6.91113C2.96118 7.07077 2.96118 7.23076 2.96118 7.40882C2.78937 7.40882 2.62644 7.40882 2.46351 7.40882C2.46351 7.24886 2.46351 7.0892 2.46351 6.91113C2.63565 6.91113 2.79826 6.91113 2.96118 6.91113Z" fill="white"/>
<path d="M3.45445 8.39674C3.45445 8.23678 3.45445 8.07715 3.45445 7.90271C3.62297 7.90271 3.78556 7.90271 3.94849 7.90271L3.94487 7.89941C3.94619 8.0653 3.94717 8.23118 3.94849 8.39674C3.7826 8.39575 3.61672 8.39443 3.45084 8.39345L3.45445 8.39674Z" fill="white"/>
<path d="M2.95717 8.39717C3.12305 8.39717 3.28895 8.39685 3.45483 8.39685L3.45122 8.39356C3.45253 8.55944 3.45352 8.72532 3.45483 8.89088C3.28895 8.89088 3.12305 8.89087 2.95717 8.8912C2.95815 8.72532 2.95947 8.55944 2.96046 8.39356L2.95717 8.39717Z" fill="white"/>
<path d="M2.46351 7.90173C2.62348 7.90173 2.78344 7.90173 2.95789 7.90173C2.95789 8.07025 2.95789 8.23316 2.95789 8.39609L2.96118 8.39247C2.79529 8.39346 2.6294 8.39478 2.46351 8.39577C2.46483 8.22988 2.46583 8.064 2.46715 7.89844L2.46351 7.90173Z" fill="white"/>
<path d="M1.47804 8.39609C1.47804 8.2302 1.4777 8.06433 1.4777 7.89844L1.47442 7.90205C1.64031 7.90205 1.80618 7.90205 1.97207 7.90205L1.96878 7.89876C1.97009 8.06465 1.9711 8.23053 1.97241 8.39609C1.80653 8.3951 1.64063 8.39378 1.47474 8.39279L1.47804 8.39609Z" fill="white"/>
<path d="M1.47876 8.88759C1.31287 8.8889 1.147 8.88989 0.981112 8.8912C0.981112 8.72532 0.981112 8.55944 0.981112 8.39356C1.147 8.39454 1.31287 8.39586 1.47876 8.39685L1.47514 8.39356C1.47514 8.55944 1.47514 8.72532 1.47514 8.8912L1.47876 8.88759Z" fill="white"/>
<path d="M1.47838 9.38437C1.47838 9.21848 1.47804 9.05261 1.47804 8.88672L1.47476 8.89034C1.64065 8.88902 1.80653 8.88804 1.97241 8.88672C1.97241 9.05261 1.97241 9.21851 1.97241 9.38473C1.80653 9.38341 1.64065 9.38239 1.47476 9.38107L1.47838 9.38437Z" fill="white"/>
<path d="M1.47876 9.87525C1.31287 9.87624 1.14698 9.87756 0.981092 9.87855C0.981092 9.71266 0.981092 9.54675 0.981092 9.38086C1.14698 9.38185 1.31287 9.38317 1.47876 9.38415L1.47514 9.38086C1.47514 9.54675 1.47514 9.71266 1.47514 9.87855L1.47876 9.87525Z" fill="white"/>
<path d="M14.3212 10.3691C14.3225 10.535 14.3238 10.7009 14.3248 10.8668C14.1589 10.8668 13.993 10.8668 13.8272 10.8668C13.8285 10.7009 13.8295 10.535 13.8308 10.3691L13.8272 10.3724C13.993 10.3724 14.1589 10.3724 14.3248 10.3724L14.3212 10.3691Z" fill="white"/>
<path d="M13.8312 10.3684C13.6653 10.3684 13.4994 10.3681 13.3335 10.3681L13.3368 10.3717C13.3358 10.2058 13.3345 10.0399 13.3335 9.87402C13.4994 9.87402 13.6653 9.87406 13.8312 9.87439C13.8299 10.0403 13.8289 10.2062 13.8275 10.3717L13.8312 10.3684Z" fill="white"/>
<path d="M12.8399 10.8671C12.8412 10.7012 12.8422 10.5353 12.8435 10.3695L12.8399 10.3728C13.0057 10.3728 13.1716 10.3728 13.3375 10.3728L13.3342 10.3691C13.3352 10.535 13.3365 10.7009 13.3375 10.8668C13.1716 10.8671 13.0057 10.8671 12.8399 10.8671Z" fill="white"/>
<path d="M12.3463 10.3717C12.3477 10.2058 12.3486 10.0399 12.35 9.87402L12.3463 9.87732C12.5122 9.87633 12.6781 9.87501 12.844 9.87402C12.8427 10.0399 12.8417 10.2058 12.8404 10.3714L12.844 10.3681C12.6781 10.3694 12.5122 10.3707 12.3463 10.3717Z" fill="white"/>
<path d="M11.8513 9.87855C11.8526 9.71266 11.8537 9.54675 11.855 9.38086L11.8513 9.38415C12.0172 9.38284 12.1831 9.38185 12.349 9.38086C12.3477 9.54675 12.3467 9.71263 12.3454 9.87819L12.349 9.87489C12.1831 9.87621 12.0172 9.87756 11.8513 9.87855Z" fill="white"/>
<path d="M11.3574 9.38437C11.3574 9.21848 11.3574 9.05261 11.3574 8.88672C11.5232 8.88804 11.6891 8.88902 11.855 8.89034L11.8517 8.88672C11.8517 9.05261 11.8517 9.21848 11.8517 9.38437L11.8553 9.38107C11.6895 9.38206 11.5232 9.38338 11.3574 9.38437Z" fill="white"/>
<path d="M10.864 9.38452C11.0299 9.3832 11.1958 9.38218 11.3617 9.38086C11.3617 9.54675 11.3617 9.71266 11.3617 9.87855C11.1958 9.87723 11.0299 9.87625 10.864 9.87493L10.8673 9.87855C10.8673 9.71266 10.8673 9.54675 10.8673 9.38086L10.864 9.38452Z" fill="white"/>
<path d="M10.3692 10.372C10.3705 10.2061 10.3715 10.0402 10.3728 9.87435L10.3692 9.87764C10.5351 9.87764 10.7009 9.87764 10.8668 9.87764L10.8635 9.87402C10.8645 10.0399 10.8658 10.2058 10.8668 10.3717C10.7006 10.372 10.5351 10.372 10.3692 10.372Z" fill="white"/>
<path d="M9.87518 9.87887C9.8765 9.71298 9.87748 9.54707 9.8788 9.38118L9.87518 9.38448C10.0411 9.38448 10.207 9.38448 10.3728 9.38448L10.3696 9.38086C10.3696 9.54675 10.3696 9.71262 10.3696 9.87851L10.3732 9.87521C10.2073 9.87653 10.0411 9.87788 9.87518 9.87887Z" fill="white"/>
<path d="M9.87805 9.38139C9.71216 9.38139 9.54629 9.3814 9.3804 9.38107L9.3837 9.38469C9.3837 9.2188 9.3837 9.05293 9.3837 8.88704L9.38006 8.89034C9.54595 8.89034 9.71184 8.89034 9.87773 8.89034L9.87444 8.88672C9.87444 9.05261 9.87444 9.21848 9.87444 9.38437L9.87805 9.38139Z" fill="white"/>
<path d="M8.88673 9.87887C8.88805 9.71298 8.88905 9.54707 8.89037 9.38118L8.88673 9.38448C9.05262 9.38448 9.21851 9.38448 9.3844 9.38448L9.3811 9.38086C9.38209 9.54675 9.38341 9.71262 9.3844 9.87851C9.21818 9.87884 9.05262 9.87887 8.88673 9.87887Z" fill="white"/>
<path d="M8.39238 9.38086C8.3937 9.54675 8.39468 9.71266 8.396 9.87855C8.23011 9.87855 8.06421 9.87855 7.89833 9.87855C7.89964 9.71266 7.90063 9.54675 7.90194 9.38086L7.89833 9.38415C8.06421 9.38415 8.23011 9.38415 8.396 9.38415L8.39238 9.38086Z" fill="white"/>
<path d="M7.40411 9.38437C7.40411 9.21848 7.40411 9.05261 7.40411 8.88672C7.57 8.88804 7.73587 8.88902 7.90176 8.89034L7.89848 8.88672C7.89848 9.05261 7.89848 9.21848 7.89848 9.38437L7.9021 9.38107C7.73588 9.38206 7.57 9.38338 7.40411 9.38437Z" fill="white"/>
<path d="M6.91078 9.38452C7.07667 9.3832 7.24256 9.38218 7.40845 9.38086C7.40845 9.54675 7.40845 9.71266 7.40845 9.87855C7.24256 9.87723 7.07667 9.87625 6.91078 9.87493L6.91407 9.87855C6.91407 9.71266 6.91407 9.54675 6.91407 9.38086L6.91078 9.38452Z" fill="white"/>
<path d="M6.41568 10.372C6.417 10.2061 6.41798 10.0402 6.4193 9.87435L6.41568 9.87764C6.58157 9.87764 6.74744 9.87764 6.91333 9.87764L6.91004 9.87402C6.91102 10.0399 6.91234 10.2058 6.91333 10.3717C6.74744 10.372 6.58157 10.372 6.41568 10.372Z" fill="white"/>
<path d="M8.89087 9.38107C8.72498 9.38107 8.55877 9.38107 8.39288 9.38107L8.3965 9.38437C8.3965 9.21848 8.3965 9.05261 8.3965 8.88672L8.3932 8.89001C8.55909 8.89001 8.72498 8.89001 8.89087 8.89001L8.88757 8.88672C8.88757 9.05261 8.88757 9.21848 8.88757 9.38437L8.89087 9.38107Z" fill="white"/>
<path d="M5.92201 9.87887C5.92333 9.71298 5.92431 9.54707 5.92563 9.38118L5.92201 9.38448C6.0879 9.38448 6.25379 9.38448 6.41968 9.38448L6.41606 9.38086C6.41606 9.54675 6.41606 9.71262 6.41606 9.87851L6.41968 9.87521C6.25379 9.87653 6.0879 9.87788 5.92201 9.87887Z" fill="white"/>
<path d="M5.92603 9.38139C5.76014 9.38139 5.59426 9.3814 5.42838 9.38107L5.43167 9.38469C5.43167 9.2188 5.43167 9.05293 5.43167 8.88704L5.42838 8.89034C5.59426 8.89034 5.76014 8.89034 5.92603 8.89034L5.92275 8.88672C5.92275 9.05261 5.92275 9.21848 5.92275 9.38437L5.92603 9.38139Z" fill="white"/>
<path d="M4.93348 9.87887C4.9348 9.71298 4.93578 9.54707 4.9371 9.38118L4.93348 9.38448C5.09937 9.38448 5.26527 9.38448 5.43115 9.38448L5.42786 9.38086C5.42885 9.54675 5.43016 9.71262 5.43115 9.87851C5.26527 9.87884 5.09937 9.87887 4.93348 9.87887Z" fill="white"/>
<path d="M4.43997 9.38086C4.44128 9.54675 4.44229 9.71266 4.4436 9.87855C4.27772 9.87855 4.11182 9.87855 3.94594 9.87855C3.94725 9.71266 3.94823 9.54675 3.94955 9.38086L3.94594 9.38415C4.11182 9.38415 4.27772 9.38415 4.4436 9.38415L4.43997 9.38086Z" fill="white"/>
<path d="M3.45196 9.38437C3.45196 9.21848 3.45196 9.05261 3.45196 8.88672C3.61785 8.88804 3.78372 8.88902 3.94961 8.89034L3.94632 8.88672C3.94632 9.05261 3.94632 9.21848 3.94632 9.38437L3.94995 9.38107C3.78374 9.38206 3.61785 9.38338 3.45196 9.38437Z" fill="white"/>
<path d="M2.95717 9.38452C3.12305 9.3832 3.28895 9.38218 3.45483 9.38086C3.45483 9.54675 3.45483 9.71266 3.45483 9.87855C3.28895 9.87723 3.12305 9.87625 2.95717 9.87493L2.96046 9.87855C2.96046 9.71266 2.96046 9.54675 2.96046 9.38086L2.95717 9.38452Z" fill="white"/>
<path d="M2.46351 10.372C2.46483 10.2061 2.46583 10.0402 2.46715 9.87435L2.46351 9.87764C2.6294 9.87764 2.79529 9.87764 2.96118 9.87764L2.95789 9.87402C2.95887 10.0399 2.96019 10.2058 2.96118 10.3717C2.79529 10.372 2.6294 10.372 2.46351 10.372Z" fill="white"/>
<path d="M4.93726 9.38107C4.77137 9.38107 4.60515 9.38107 4.43927 9.38107L4.4429 9.38437C4.4429 9.21848 4.4429 9.05261 4.4429 8.88672L4.43961 8.89001C4.60549 8.89001 4.77137 8.89001 4.93726 8.89001L4.93364 8.88672C4.93364 9.05261 4.93364 9.21848 4.93364 9.38437L4.93726 9.38107Z" fill="white"/>
<path d="M1.96954 9.38086C2.13543 9.38218 2.30132 9.3832 2.46721 9.38452L2.46391 9.38086C2.46391 9.54675 2.46391 9.71266 2.46391 9.87855L2.46753 9.87525C2.30164 9.87624 2.13575 9.87756 1.96986 9.87855C1.96953 9.71233 1.96954 9.54642 1.96954 9.38086Z" fill="white"/>
<path d="M16.2988 9.38086C16.3001 9.54675 16.3011 9.71266 16.3024 9.87855C16.1365 9.87855 15.9706 9.87855 15.8047 9.87855C15.806 9.71266 15.807 9.54675 15.8083 9.38086L15.8047 9.38415C15.9706 9.38415 16.1365 9.38415 16.3024 9.38415L16.2988 9.38086Z" fill="white"/>
<path d="M15.3106 9.38437C15.3106 9.21848 15.3106 9.05261 15.3106 8.88672C15.4765 8.88804 15.6424 8.88902 15.8083 8.89034L15.805 8.88672C15.805 9.05261 15.805 9.21848 15.805 9.38437L15.8086 9.38107C15.6424 9.38206 15.4765 9.38338 15.3106 9.38437Z" fill="white"/>
<path d="M14.8158 9.38452C14.9817 9.3832 15.1476 9.38218 15.3135 9.38086C15.3135 9.54675 15.3135 9.71266 15.3135 9.87855C15.1476 9.87723 14.9817 9.87625 14.8158 9.87493L14.8191 9.87855C14.8191 9.71266 14.8191 9.54675 14.8191 9.38086L14.8158 9.38452Z" fill="white"/>
<path d="M14.8199 10.3717C14.6541 10.3704 14.4882 10.3694 14.322 10.3684L14.3256 10.3717C14.3243 10.2058 14.3233 10.0399 14.322 9.87439C14.4878 9.87537 14.6537 9.87669 14.8196 9.87768L14.8163 9.87402C14.8176 10.0399 14.819 10.2058 14.8199 10.3717Z" fill="white"/>
<path d="M16.7935 9.38086C16.9594 9.38086 17.1253 9.38086 17.2911 9.38086C17.2911 9.54675 17.2911 9.71266 17.2911 9.87855C17.1253 9.87855 16.9594 9.87855 16.7935 9.87855C16.7935 9.71233 16.7935 9.54642 16.7935 9.38086Z" fill="white"/>
<path d="M16.2984 8.89034C16.4642 8.88902 16.6301 8.88804 16.796 8.88672C16.796 9.05261 16.796 9.21848 16.796 9.38437C16.6301 9.38338 16.4642 9.38206 16.298 9.38107L16.3016 9.38437C16.3016 9.21848 16.3016 9.05261 16.3016 8.88672L16.2984 8.89034Z" fill="white"/>
<path d="M17.2871 9.38437C17.2871 9.21848 17.2871 9.05261 17.2871 8.88672C17.453 8.88672 17.6189 8.88672 17.7848 8.88672C17.7848 9.05261 17.7848 9.21848 17.7848 9.38437C17.6189 9.38437 17.453 9.38437 17.2871 9.38437Z" fill="white"/>
<path d="M15.808 8.8912C15.807 8.72532 15.8057 8.55944 15.8047 8.39356C15.9706 8.39356 16.1365 8.39356 16.3024 8.39356C16.3014 8.55944 16.3001 8.72532 16.2991 8.8912L16.3024 8.88759C16.1365 8.88759 15.9706 8.88759 15.8047 8.88759L15.808 8.8912Z" fill="white"/>
<path d="M14.3263 8.39356C14.325 8.55944 14.324 8.72532 14.3227 8.8912L14.3263 8.88791C14.1604 8.88923 13.9945 8.89021 13.8286 8.89153C13.8296 8.72564 13.8309 8.55976 13.8319 8.39388L13.8286 8.39749C13.9945 8.39618 14.1604 8.39487 14.3263 8.39356Z" fill="white"/>
<path d="M13.3371 8.39609C13.3358 8.2302 13.3348 8.06433 13.3335 7.89844C13.4994 7.89844 13.6653 7.89844 13.8312 7.89844C13.8302 8.06433 13.8289 8.2302 13.8279 8.39609L13.8312 8.39247C13.6653 8.39247 13.4994 8.39247 13.3335 8.39247L13.3371 8.39609Z" fill="white"/>
<path d="M12.8399 8.39717C13.0057 8.39717 13.1716 8.39685 13.3375 8.39685L13.3339 8.39356C13.3352 8.55944 13.3362 8.72532 13.3375 8.89088C13.1716 8.89088 13.0057 8.89087 12.8399 8.8912C12.8408 8.72532 12.8422 8.55944 12.8432 8.39356L12.8399 8.39717Z" fill="white"/>
<path d="M12.35 8.39609C12.3486 8.2302 12.3473 8.06433 12.3463 7.89844C12.5122 7.89844 12.6781 7.89844 12.844 7.89844C12.843 8.06433 12.8417 8.2302 12.8407 8.39609L12.844 8.39247C12.6781 8.39247 12.5122 8.39247 12.3463 8.39247L12.35 8.39609Z" fill="white"/>
<path d="M14.3223 8.89001C14.4882 8.88903 14.6541 8.88771 14.8199 8.88672C14.819 9.05261 14.8176 9.21852 14.8167 9.38441L14.8199 9.38075C14.6541 9.38207 14.4882 9.38309 14.3223 9.38441C14.3233 9.21852 14.3246 9.05261 14.3256 8.88672L14.3223 8.89001Z" fill="white"/>
<path d="M11.8556 8.8912C11.8547 8.72532 11.8533 8.55944 11.8524 8.39356C12.0182 8.39454 12.1841 8.39586 12.3503 8.39685L12.3467 8.39356C12.3477 8.55944 12.349 8.72532 12.35 8.8912C12.1841 8.88989 12.0182 8.8889 11.8524 8.88759L11.8556 8.8912Z" fill="white"/>
<path d="M10.3732 8.39356C10.3719 8.55944 10.3708 8.72532 10.3695 8.8912L10.3732 8.88791C10.2073 8.88791 10.0414 8.88791 9.8755 8.88791L9.8788 8.89153C9.8788 8.72564 9.8788 8.55976 9.8788 8.39388L9.8755 8.39749C10.0414 8.39618 10.2073 8.39487 10.3732 8.39356Z" fill="white"/>
<path d="M9.38402 8.39609C9.3827 8.2302 9.38172 8.06433 9.3804 7.89844C9.54629 7.89844 9.71216 7.89844 9.87805 7.89844C9.87706 8.06433 9.87574 8.2302 9.87476 8.39609L9.87805 8.39247C9.71216 8.39247 9.54629 8.39247 9.3804 8.39247L9.38402 8.39609Z" fill="white"/>
<path d="M8.88673 8.39717C9.05262 8.39717 9.21851 8.39685 9.3844 8.39685L9.38078 8.39356C9.38078 8.55944 9.38078 8.72532 9.38078 8.8912L9.3844 8.88791C9.21851 8.88791 9.05262 8.88791 8.88673 8.88791L8.89003 8.8912C8.89003 8.72532 8.89003 8.55944 8.89003 8.39356L8.88673 8.39717Z" fill="white"/>
<path d="M8.39682 8.39609C8.3955 8.2302 8.39452 8.06433 8.3932 7.89844C8.55909 7.89844 8.72498 7.89844 8.89087 7.89844C8.88988 8.06433 8.88856 8.2302 8.88757 8.39609L8.89087 8.39247C8.72498 8.39247 8.55909 8.39247 8.3932 8.39247L8.39682 8.39609Z" fill="white"/>
<path d="M10.3688 8.89001C10.5347 8.88903 10.7006 8.88771 10.8668 8.88672C10.8658 9.05261 10.8645 9.21852 10.8635 9.38441L10.8668 9.38075C10.7009 9.38075 10.5351 9.38075 10.3692 9.38075L10.3725 9.38441C10.3725 9.21852 10.3725 9.05261 10.3725 8.88672L10.3688 8.89001Z" fill="white"/>
<path d="M7.90252 8.8912C7.90153 8.72532 7.90021 8.55944 7.89923 8.39356C8.06511 8.39454 8.231 8.39586 8.39722 8.39685L8.3936 8.39356C8.3936 8.55944 8.3936 8.72532 8.3936 8.8912L8.3969 8.88791C8.23101 8.88791 8.06511 8.88791 7.89923 8.88791L7.90252 8.8912Z" fill="white"/>
<path d="M6.41968 8.39356C6.41836 8.55944 6.41738 8.72532 6.41606 8.8912L6.41968 8.88791C6.25379 8.88791 6.08792 8.88791 5.92203 8.88791L5.92532 8.89153C5.92532 8.72564 5.92532 8.55976 5.92532 8.39388L5.92203 8.39749C6.08825 8.39618 6.25412 8.39487 6.41968 8.39356Z" fill="white"/>
<path d="M5.43199 8.39609C5.43068 8.2302 5.42969 8.06433 5.42838 7.89844C5.59426 7.89844 5.76014 7.89844 5.92603 7.89844C5.92504 8.06433 5.92374 8.2302 5.92275 8.39609L5.92603 8.39247C5.76014 8.39247 5.59426 8.39247 5.42838 8.39247L5.43199 8.39609Z" fill="white"/>
<path d="M4.93348 8.39717C5.09937 8.39717 5.26527 8.39685 5.43115 8.39685L5.42752 8.39356C5.42752 8.55944 5.42752 8.72532 5.42752 8.8912L5.43081 8.88791C5.26492 8.88791 5.09905 8.88791 4.93316 8.88791L4.93678 8.8912C4.93678 8.72532 4.93678 8.55944 4.93678 8.39356L4.93348 8.39717Z" fill="white"/>
<path d="M4.44322 8.39609C4.44191 8.2302 4.44092 8.06433 4.43961 7.89844C4.60549 7.89844 4.77137 7.89844 4.93726 7.89844C4.93627 8.06433 4.93495 8.2302 4.93396 8.39609L4.93726 8.39247C4.77137 8.39247 4.60549 8.39247 4.43961 8.39247L4.44322 8.39609Z" fill="white"/>
<path d="M6.41566 8.89001C6.58155 8.88903 6.74744 8.88771 6.91333 8.88672C6.91234 9.05261 6.91102 9.21852 6.91004 9.38441L6.91333 9.38075C6.74744 9.38075 6.58155 9.38075 6.41566 9.38075L6.41928 9.38441C6.41928 9.21852 6.41928 9.05261 6.41928 8.88672L6.41566 8.89001Z" fill="white"/>
<path d="M3.94891 8.8912C3.94792 8.72532 3.9466 8.55944 3.94561 8.39356C4.1115 8.39454 4.27739 8.39586 4.4436 8.39685L4.43999 8.39356C4.43999 8.55944 4.43999 8.72532 4.43999 8.8912L4.44328 8.88791C4.2774 8.88791 4.1115 8.88791 3.94561 8.88791L3.94891 8.8912Z" fill="white"/>
<path d="M2.46631 8.8912C2.30042 8.8912 2.13453 8.8912 1.96864 8.8912C1.96864 8.72532 1.96864 8.55944 1.96864 8.39356C2.13453 8.39356 2.30042 8.39356 2.46631 8.39356C2.46631 8.55944 2.46631 8.72532 2.46631 8.8912Z" fill="white"/>
<path d="M2.46683 9.38441C2.46584 9.21852 2.46452 9.05261 2.46353 8.88672C2.62942 8.88672 2.79529 8.88672 2.96118 8.88672C2.96019 9.05261 2.95889 9.21852 2.95791 9.38441L2.96118 9.38075C2.79529 9.38075 2.62942 9.38075 2.46353 9.38075L2.46683 9.38441Z" fill="white"/>
<path d="M13.8286 9.38086C13.9945 9.38086 14.1604 9.38086 14.3263 9.38086C14.3263 9.54675 14.3263 9.71266 14.3263 9.87855C14.1604 9.87855 13.9945 9.87855 13.8286 9.87855C13.8286 9.71233 13.8286 9.54642 13.8286 9.38086Z" fill="white"/>
<path d="M13.3335 9.38437C13.3335 9.21848 13.3335 9.05261 13.3335 8.88672C13.4994 8.88672 13.6653 8.88672 13.8312 8.88672C13.8312 9.05261 13.8312 9.21848 13.8312 9.38437C13.665 9.38437 13.4991 9.38437 13.3335 9.38437Z" fill="white"/>
<path d="M12.8399 9.38086C13.0057 9.38086 13.1716 9.38086 13.3375 9.38086C13.3375 9.54675 13.3375 9.71266 13.3375 9.87855C13.1716 9.87855 13.0057 9.87855 12.8399 9.87855C12.8399 9.71233 12.8399 9.54642 12.8399 9.38086Z" fill="white"/>
<path d="M12.3463 8.88672C12.5122 8.88672 12.6781 8.88672 12.844 8.88672C12.844 9.05261 12.844 9.21848 12.844 9.38437C12.6781 9.38437 12.5122 9.38437 12.3463 9.38437C12.3463 9.21848 12.3463 9.05261 12.3463 8.88672Z" fill="white"/>
</svg>
