<svg width="61" height="32" viewBox="0 0 61 32" fill="none" xmlns="http://www.w3.org/2000/svg">
<path d="M49.8421 0H38.5281C38.067 0 37.6463 0.263517 37.445 0.678552C36.5778 2.46685 35.7104 4.25492 34.8432 6.04321C34.2854 7.19335 32.5563 6.796 32.5563 5.51771L32.5567 1.20406C32.5567 0.539042 32.0177 0 31.3529 0C26.0875 0 20.8222 0 15.5567 0C15.0956 0 14.6749 0.263517 14.4736 0.678552C9.68921 10.5427 4.90485 20.4068 0.120711 30.2709C-0.267033 31.0704 0.315238 32 1.20382 32H15.6377C16.099 32 16.5195 31.7367 16.7208 31.3217C18.6704 27.3017 20.6203 23.2817 22.5699 19.2619C23.0753 18.2198 24.6169 18.4229 24.8352 19.5603C25.5688 23.3814 26.3024 27.2023 27.0357 31.0234C27.1447 31.5904 27.6407 32.0002 28.2179 32.0002H58.9154C59.7248 32.0002 60.3035 31.2173 60.0664 30.4433C57.042 20.5792 54.0175 10.7151 50.9931 0.851028C50.8381 0.345171 50.3711 0 49.8421 0Z" fill="#F47948"/>
</svg>
